<svg width="24" height="25" viewBox="0 0 24 25" fill="none" xmlns="http://www.w3.org/2000/svg">
<path d="M3 7.17139C3 5.28577 3 4.34296 3.58579 3.75717C4.17157 3.17139 5.11438 3.17139 7 3.17139H13C14.8856 3.17139 15.8284 3.17139 16.4142 3.75717C16.5956 3.93855 16.7208 4.15416 16.8073 4.42139H18C20.6234 4.42139 22.75 6.54803 22.75 9.17139C22.75 11.7947 20.6234 13.9214 18 13.9214H17V12.4214H18C19.7949 12.4214 21.25 10.9663 21.25 9.17139C21.25 7.37646 19.7949 5.92139 18 5.92139H16.9908C17 6.28492 17 6.6985 17 7.17139V12.4214H3.00002L3 7.17139Z" fill="#F14C8B"/>
<path d="M3.01095 13.9214H16.9891C16.9528 15.6267 16.7963 16.6177 16.1213 17.2927C15.2426 18.1714 13.8284 18.1714 11 18.1714H9C6.17157 18.1714 4.75736 18.1714 3.87868 17.2927C3.2037 16.6177 3.04722 15.6267 3.01095 13.9214Z" fill="#F14C8B"/>
<path fill-rule="evenodd" clip-rule="evenodd" d="M1.25 21.1714C1.25 20.7572 1.58579 20.4214 2 20.4214L22 20.4214C22.4142 20.4214 22.75 20.7572 22.75 21.1714C22.75 21.5856 22.4142 21.9214 22 21.9214L2 21.9214C1.58579 21.9214 1.25 21.5856 1.25 21.1714Z" fill="#F14C8B"/>
</svg>
