<svg width="24" height="25" viewBox="0 0 24 25" fill="none" xmlns="http://www.w3.org/2000/svg">
<path fill-rule="evenodd" clip-rule="evenodd" d="M2 12.1714C2 11.2898 2 10.4906 2.00958 9.7643C2.06596 9.56943 2.13335 9.39869 2.21322 9.24193C2.62068 8.44224 3.27085 7.79207 4.07054 7.38461C4.48197 7.17498 4.9897 7.05135 5.77708 6.98702C5.92663 6.9748 6.08387 6.96486 6.25 6.95676V11.0024C6.25 11.47 6.24999 11.8535 6.26739 12.1553C6.28454 12.453 6.32145 12.7613 6.44371 13.0366C6.88513 14.0304 7.97413 14.5663 9.03086 14.3097C9.32356 14.2386 9.59039 14.0798 9.83671 13.9117C10.0864 13.7414 10.3903 13.5074 10.7608 13.2222L10.7793 13.2079C11.2486 12.8465 11.3808 12.7517 11.5019 12.6991C11.8196 12.5611 12.1804 12.5611 12.4981 12.6991C12.6192 12.7517 12.7513 12.8465 13.2207 13.2079L13.2392 13.2221C13.6097 13.5074 13.9135 13.7414 14.1633 13.9117C14.4096 14.0798 14.6764 14.2386 14.9691 14.3097C16.0259 14.5663 17.1149 14.0304 17.5563 13.0366C17.6786 12.7613 17.7155 12.453 17.7326 12.1553C17.75 11.8535 17.75 11.4699 17.75 11.0023V6.95676C17.9161 6.96486 18.0734 6.9748 18.2229 6.98702C19.0103 7.05135 19.518 7.17498 19.9295 7.38461C20.7291 7.79207 21.3793 8.44224 21.7868 9.24193C21.8667 9.39869 21.934 9.56944 21.9904 9.7643C22 10.4906 22 11.2898 22 12.1714C22 16.8854 22 19.2425 20.5355 20.7069C19.0711 22.1714 16.714 22.1714 12 22.1714C7.28595 22.1714 4.92893 22.1714 3.46447 20.7069C2 19.2425 2 16.8854 2 12.1714ZM21.8433 6.89453C21.6699 5.42056 21.3048 4.40508 20.5355 3.63585C19.0711 2.17139 16.714 2.17139 12 2.17139C7.28595 2.17139 4.92893 2.17139 3.46447 3.63585C2.69524 4.40508 2.33006 5.42056 2.15669 6.89453C2.52685 6.56189 2.9408 6.27675 3.38955 6.0481C4.04768 5.71277 4.77479 5.56391 5.65494 5.492C6.51929 5.42138 7.59472 5.42138 8.96644 5.42139H15.0336C16.4053 5.42138 17.4807 5.42138 18.3451 5.492C19.2252 5.56391 19.9523 5.71277 20.6104 6.0481C21.0592 6.27675 21.4732 6.56189 21.8433 6.89453Z" fill="#F14C8B"/>
<path d="M7.75 10.979V6.92372C8.12917 6.92145 8.54382 6.92139 9 6.92139H15C15.4562 6.92139 15.8708 6.92145 16.25 6.92372V10.979C16.25 11.4757 16.2497 11.8156 16.2351 12.069C16.22 12.3314 16.1923 12.4122 16.1854 12.4277C16.0383 12.759 15.6753 12.9376 15.323 12.8521C15.3066 12.8481 15.2257 12.8207 15.0085 12.6726C14.7989 12.5296 14.5294 12.3224 14.1358 12.0194L14.0688 11.9677C13.6986 11.6823 13.4101 11.4599 13.0958 11.3233C12.3968 11.0197 11.6032 11.0197 10.9042 11.3233C10.5899 11.4599 10.3014 11.6823 9.9312 11.9677L9.86419 12.0194C9.47062 12.3224 9.20112 12.5296 8.99148 12.6726C8.77428 12.8207 8.69342 12.8481 8.67695 12.8521C8.32471 12.9376 7.96171 12.759 7.81457 12.4277C7.80769 12.4122 7.78003 12.3314 7.7649 12.069C7.7503 11.8156 7.75 11.4757 7.75 10.979Z" fill="#F14C8B"/>
</svg>
