<svg width="24" height="25" viewBox="0 0 24 25" fill="none" xmlns="http://www.w3.org/2000/svg">
<path fill-rule="evenodd" clip-rule="evenodd" d="M1 20.4114C1 19.9916 1.3436 19.6514 1.76744 19.6514H22.2326C22.6564 19.6514 23 19.9916 23 20.4114C23 20.8311 22.6564 21.1714 22.2326 21.1714H1.76744C1.3436 21.1714 1 20.8311 1 20.4114Z" fill="#F14C8B"/>
<path fill-rule="evenodd" clip-rule="evenodd" d="M3.68981 4.06178C2.7907 4.95218 2.7907 6.38525 2.7907 9.25139V14.3181C2.7907 16.2288 2.7907 17.1842 3.39011 17.7778C3.98952 18.3714 4.95425 18.3714 6.88372 18.3714H17.1163C19.0457 18.3714 20.0105 18.3714 20.6099 17.7778C21.2093 17.1842 21.2093 16.2288 21.2093 14.3181V9.25139C21.2093 6.38525 21.2093 4.95218 20.3102 4.06178C19.4111 3.17139 17.964 3.17139 15.0698 3.17139H8.93023C6.03603 3.17139 4.58893 3.17139 3.68981 4.06178ZM8.16279 15.3314C8.16279 14.9116 8.50639 14.5714 8.93023 14.5714H15.0698C15.4936 14.5714 15.8372 14.9116 15.8372 15.3314C15.8372 15.7511 15.4936 16.0914 15.0698 16.0914H8.93023C8.50639 16.0914 8.16279 15.7511 8.16279 15.3314Z" fill="#F14C8B"/>
</svg>
