<svg width="24" height="25" viewBox="0 0 24 25" fill="none" xmlns="http://www.w3.org/2000/svg">
<path d="M5.77667 10.4669V18.4364C5.77667 19.7595 5.77667 20.421 6.22555 20.983C6.67443 21.545 7.21092 21.6437 8.28392 21.841C9.27582 22.0235 10.5325 22.1714 12 22.1714C13.4675 22.1714 14.7242 22.0235 15.7161 21.841C16.7891 21.6437 17.3256 21.545 17.7745 20.983C18.2233 20.421 18.2233 19.7595 18.2233 18.4364V10.4669C18.2233 9.78311 18.2233 9.4412 18.3547 9.14067C18.4861 8.84014 18.7329 8.61763 19.2264 8.17262L19.4116 8.00554C20.4679 7.05309 20.996 6.57686 21 5.88751C21.004 5.19816 20.5355 4.7653 19.5987 3.89957C19.4569 3.76851 19.3164 3.64593 19.1808 3.5372C18.7094 3.15936 18.0431 2.74581 17.5332 2.44704C17.056 2.16747 16.4954 2.10306 15.9656 2.24242L15.4755 2.37132C15.0874 2.47339 14.7493 2.72399 14.5274 3.07417C13.3251 4.97154 10.6749 4.97154 9.47256 3.07417C9.25065 2.72399 8.91264 2.47339 8.52454 2.37132L8.03445 2.24242C7.50458 2.10306 6.944 2.16747 6.46683 2.44704C5.95689 2.74581 5.29062 3.15936 4.81923 3.5372C4.68359 3.64593 4.5431 3.76851 4.40129 3.89957C3.46446 4.7653 2.99605 5.19816 3.00003 5.88751C3.004 6.57686 3.53212 7.05309 4.58835 8.00554L4.77364 8.17262C5.26714 8.61763 5.51389 8.84014 5.64528 9.14067C5.77667 9.4412 5.77667 9.78311 5.77667 10.4669Z" fill="#F14C8B"/>
</svg>
