<svg width="24" height="25" viewBox="0 0 24 25" fill="none" xmlns="http://www.w3.org/2000/svg">
<path fill-rule="evenodd" clip-rule="evenodd" d="M2 16.315V5.16919C2 4.07102 2.8863 3.17891 3.9824 3.24628C4.95877 3.30628 6.11349 3.4249 7 3.65883C8.04921 3.9357 9.29611 4.5254 10.2823 5.04685C10.5894 5.20924 10.9159 5.32187 11.2502 5.38536V20.564C10.9472 20.4972 10.6516 20.3894 10.3724 20.2406C9.37293 19.7079 8.08145 19.0901 7 18.8047C6.12329 18.5734 4.98428 18.4548 4.01486 18.3942C2.90605 18.3249 2 17.4259 2 16.315ZM5.18208 8.44378C4.78023 8.34332 4.37303 8.58764 4.27257 8.98948C4.17211 9.39133 4.41643 9.79853 4.81828 9.89899L8.81828 10.899C9.22012 10.9995 9.62732 10.7551 9.72778 10.3533C9.82825 9.95144 9.58393 9.54424 9.18208 9.44378L5.18208 8.44378ZM5.18208 12.4438C4.78023 12.3433 4.37303 12.5876 4.27257 12.9895C4.17211 13.3913 4.41643 13.7985 4.81828 13.899L8.81828 14.899C9.22012 14.9995 9.62732 14.7551 9.72778 14.3533C9.82825 13.9514 9.58393 13.5442 9.18208 13.4438L5.18208 12.4438Z" fill="#F14C8B"/>
<path fill-rule="evenodd" clip-rule="evenodd" d="M12.7502 20.5639C13.0531 20.4971 13.3485 20.3894 13.6276 20.2406C14.6271 19.7079 15.9185 19.0901 17 18.8047C17.8767 18.5734 19.0157 18.4548 19.9851 18.3942C21.094 18.3249 22 17.4259 22 16.315V5.10458C22 4.03213 21.1538 3.1518 20.082 3.18913C18.9534 3.22845 17.5469 3.34541 16.5 3.65883C15.5924 3.93055 14.5353 4.47557 13.6738 4.97414C13.3824 5.1428 13.0709 5.26669 12.7502 5.34525V20.5639ZM19.1821 9.89899C19.5839 9.79853 19.8282 9.39133 19.7278 8.98948C19.6273 8.58764 19.2201 8.34332 18.8183 8.44378L14.8183 9.44378C14.4164 9.54424 14.1721 9.95144 14.2726 10.3533C14.373 10.7551 14.7802 10.9995 15.1821 10.899L19.1821 9.89899ZM19.1821 13.899C19.5839 13.7985 19.8282 13.3913 19.7278 12.9895C19.6273 12.5876 19.2201 12.3433 18.8183 12.4438L14.8183 13.4438C14.4164 13.5442 14.1721 13.9514 14.2726 14.3533C14.373 14.7551 14.7802 14.9995 15.1821 14.899L19.1821 13.899Z" fill="#F14C8B"/>
</svg>
