<svg width="24" height="25" viewBox="0 0 24 25" fill="none" xmlns="http://www.w3.org/2000/svg">
<path fill-rule="evenodd" clip-rule="evenodd" d="M7.2915 4.95692V4.89592C7.2915 4.5574 7.30305 4.114 7.4565 3.67474C7.9652 2.21853 9.35853 1.17139 11 1.17139H13C14.6415 1.17139 16.0349 2.21853 16.5436 3.67474C16.697 4.114 16.7085 4.5574 16.7085 4.89592V4.95693C19.212 5.69442 20.9631 7.96848 20.9994 10.5877C21 10.6287 21 10.6749 21 10.7673V13.0905C20.8982 13.0905 20.7947 13.1111 20.6956 13.1549C15.1597 15.5987 8.84065 15.5987 3.30479 13.1549C3.2056 13.1111 3.10197 13.0904 3 13.0905V10.7673C3 10.6749 3 10.6287 3.00057 10.5877C3.03694 7.96846 4.78799 5.69439 7.2915 4.95692ZM8.87362 4.16313C9.17937 3.28788 10.017 2.66127 11 2.66127H13C13.9831 2.66127 14.8207 3.28788 15.1264 4.16313C15.1719 4.29327 15.194 4.44344 15.2032 4.63322C13.0832 4.27307 10.9169 4.27306 8.79689 4.63321C8.80602 4.44343 8.82816 4.29326 8.87362 4.16313ZM9.25 12.8422C9.25 12.4307 9.58579 12.0972 10 12.0972H14C14.4142 12.0972 14.75 12.4307 14.75 12.8422C14.75 13.2536 14.4142 13.5871 14 13.5871H10C9.58579 13.5871 9.25 13.2536 9.25 12.8422Z" fill="#F14C8B"/>
<path d="M21 14.6483C20.1 15.0302 19.1814 15.3523 18.2502 15.6146V16.8154C18.2502 17.2268 17.9144 17.5603 17.5002 17.5603C17.086 17.5603 16.7502 17.2268 16.7502 16.8154V15.9833C12.1726 16.9468 7.36827 16.5018 3 14.6481V16.1945C3 18.2981 4.47101 20.1196 6.53853 20.5759C10.1356 21.3699 13.8644 21.3699 17.4615 20.5759C19.529 20.1196 21 18.2981 21 16.1945V14.6483Z" fill="#F14C8B"/>
</svg>
