<svg width="254" height="97" viewBox="0 0 254 97" fill="none" xmlns="http://www.w3.org/2000/svg">
<g clip-path="url(#clip0_10494_10415)">
<path d="M212.672 92.7335C213.538 92.7335 214.256 92.4305 214.825 91.8313C215.394 91.2254 215.672 90.4377 215.672 89.4547C215.672 88.4718 215.388 87.6773 214.825 87.0781C214.256 86.4722 213.538 86.1759 212.672 86.1759C211.805 86.1759 211.088 86.4789 210.532 87.0781C209.969 87.684 209.691 88.4718 209.691 89.4547C209.691 90.4377 209.969 91.2321 210.532 91.8313C211.094 92.4373 211.805 92.7335 212.672 92.7335ZM218 84.2033V94.7062H215.75V93.3462C215.362 93.8444 214.877 94.2147 214.308 94.4638C213.732 94.7129 213.105 94.8341 212.413 94.8341C211.43 94.8341 210.551 94.6119 209.782 94.1676C209.006 93.7232 208.404 93.0903 207.971 92.2824C207.538 91.4678 207.318 90.5252 207.318 89.448C207.318 88.3708 207.538 87.4349 207.971 86.627C208.404 85.8191 209.012 85.193 209.782 84.7486C210.557 84.3043 211.437 84.0821 212.413 84.0821C213.066 84.0821 213.668 84.2033 214.217 84.4389C214.767 84.6746 215.239 85.0246 215.64 85.4825V84.2033H218ZM202.876 94.7062V87.7446L199.475 93.602H198.453L195.11 87.7244V94.7062H192.957V84.2033H195.434L199.022 90.7676L202.779 84.2033H204.99L205.01 94.7062H202.876ZM185.276 92.7604C186.155 92.7604 186.873 92.4575 187.429 91.8448C187.985 91.2321 188.257 90.4444 188.257 89.4749C188.257 88.5054 187.979 87.711 187.429 87.0983C186.873 86.4789 186.155 86.1759 185.276 86.1759C184.396 86.1759 183.666 86.4789 183.123 87.0781C182.579 87.684 182.308 88.4718 182.308 89.4547C182.308 90.4377 182.579 91.2321 183.129 91.8448C183.679 92.4575 184.39 92.7604 185.269 92.7604H185.276ZM185.373 84.0888C186.42 84.0888 187.332 84.311 188.121 84.7553C188.91 85.1997 189.517 85.8326 189.951 86.6405C190.384 87.4551 190.604 88.3977 190.604 89.4749C190.604 90.5521 190.397 91.4745 189.983 92.2892C189.569 93.1038 188.987 93.7299 188.237 94.1743C187.487 94.6186 186.621 94.8408 185.638 94.8408C184.241 94.8408 183.142 94.3763 182.353 93.4472V98.5168H179.974V89.4951C179.974 88.4314 180.2 87.4955 180.653 86.6741C181.105 85.8528 181.739 85.2199 182.547 84.7688C183.362 84.3177 184.299 84.0888 185.373 84.0888ZM172.68 92.7402C173.547 92.7402 174.264 92.4373 174.833 91.8381C175.402 91.2321 175.68 90.4444 175.68 89.4615C175.68 88.4785 175.396 87.684 174.833 87.0848C174.264 86.4789 173.547 86.1827 172.68 86.1827C171.814 86.1827 171.096 86.4856 170.54 87.0848C169.977 87.6908 169.699 88.4785 169.699 89.4615C169.699 90.4444 169.977 91.2389 170.54 91.8381C171.102 92.444 171.814 92.7402 172.68 92.7402ZM172.68 94.8408C171.659 94.8408 170.74 94.6119 169.926 94.1541C169.105 93.6963 168.471 93.0567 168.012 92.2353C167.553 91.4139 167.32 90.4915 167.32 89.4547C167.32 88.4179 167.553 87.4955 168.012 86.6809C168.471 85.8662 169.111 85.2334 169.926 84.7755C170.747 84.3177 171.665 84.0888 172.68 84.0888C173.695 84.0888 174.639 84.3177 175.454 84.7755C176.275 85.2334 176.909 85.873 177.368 86.6809C177.827 87.4955 178.06 88.4179 178.06 89.4547C178.06 90.4915 177.827 91.4206 177.368 92.2353C176.909 93.0567 176.269 93.6963 175.454 94.1541C174.633 94.6119 173.708 94.8408 172.68 94.8408ZM159.897 92.8143C162.367 92.5787 163.596 91.4543 163.596 89.4345C163.596 88.4381 163.292 87.6706 162.677 87.1252C162.07 86.5799 161.139 86.2567 159.891 86.149V92.8143H159.897ZM154.007 89.4345C154.007 90.4444 154.304 91.2321 154.905 91.7909C155.5 92.3565 156.425 92.6931 157.673 92.8143V86.149C156.425 86.2567 155.507 86.5799 154.905 87.132C154.31 87.684 154.007 88.4516 154.007 89.4345ZM165.904 89.4345C165.904 91.0571 165.387 92.3363 164.346 93.2721C163.305 94.2012 161.824 94.7331 159.897 94.8678V98.5236H157.666V94.888C155.739 94.76 154.259 94.2282 153.231 93.2923C152.196 92.3632 151.685 91.0773 151.685 89.4413C151.685 87.8052 152.203 86.5462 153.231 85.6373C154.265 84.7284 155.739 84.2033 157.666 84.0753V80.1233H159.897V84.0753C161.824 84.2033 163.305 84.7284 164.346 85.6508C165.387 86.5664 165.904 87.8322 165.904 89.448V89.4345ZM145.53 84.0888C146.804 84.0888 147.806 84.4726 148.549 85.2401C149.293 86.0076 149.661 87.1589 149.661 88.6939V94.7129H147.301V89.0104C147.301 88.0947 147.107 87.4013 146.713 86.9367C146.325 86.4722 145.763 86.2365 145.032 86.2365C144.237 86.2365 143.603 86.5058 143.124 87.0512C142.646 87.5965 142.407 88.3708 142.407 89.3807V94.7062H140.047V89.0036C140.047 88.088 139.853 87.3945 139.458 86.93C139.07 86.4654 138.508 86.2298 137.777 86.2298C136.969 86.2298 136.335 86.4991 135.863 87.0377C135.391 87.5763 135.152 88.3573 135.152 89.3807V94.7062H132.792V84.2033H135.042V85.5431C135.417 85.0718 135.889 84.7082 136.458 84.4591C137.027 84.21 137.654 84.0888 138.346 84.0888C139.103 84.0888 139.769 84.2369 140.357 84.5332C140.945 84.8294 141.405 85.267 141.747 85.8393C142.161 85.2872 142.698 84.8563 143.351 84.5534C144.004 84.2437 144.728 84.0888 145.523 84.0888H145.53ZM124.341 92.7402C125.207 92.7402 125.925 92.4373 126.494 91.8381C127.063 91.2321 127.341 90.4444 127.341 89.4615C127.341 88.4785 127.057 87.684 126.494 87.0848C125.925 86.4789 125.207 86.1827 124.341 86.1827C123.475 86.1827 122.757 86.4856 122.201 87.0848C121.638 87.6908 121.36 88.4785 121.36 89.4615C121.36 90.4444 121.638 91.2389 122.201 91.8381C122.763 92.444 123.475 92.7402 124.341 92.7402ZM129.669 84.21V94.7129H127.419V93.3529C127.031 93.8511 126.546 94.2214 125.977 94.4705C125.401 94.7196 124.774 94.8408 124.082 94.8408C123.1 94.8408 122.22 94.6186 121.451 94.1743C120.675 93.7299 120.073 93.0971 119.64 92.2892C119.207 91.4745 118.987 90.5319 118.987 89.4547C118.987 88.3775 119.207 87.4417 119.64 86.6337C120.073 85.8258 120.681 85.1997 121.451 84.7553C122.227 84.311 123.106 84.0888 124.082 84.0888C124.735 84.0888 125.337 84.21 125.886 84.4456C126.436 84.6813 126.908 85.0314 127.309 85.4892V84.21H129.669ZM116.679 84.21V94.7129H114.319V86.2971H110.543L110.446 88.3842C110.381 89.7712 110.258 90.9359 110.077 91.8717C109.896 92.8076 109.586 93.5482 109.153 94.0935C108.719 94.6388 108.124 94.9081 107.368 94.9081C107.012 94.9081 106.579 94.8341 106.062 94.6927L106.178 92.6258C106.353 92.6662 106.508 92.6864 106.631 92.6864C107.109 92.6864 107.465 92.4844 107.704 92.0872C107.943 91.69 108.099 91.2119 108.17 90.6531C108.241 90.0943 108.299 89.2999 108.351 88.263L108.519 84.21H116.679ZM104.348 84.21V94.7129H102.008V86.2971H97.0419V94.7129H94.6818V84.21H104.348ZM86.8645 88.2226H92.0566V90.2694H86.8645V88.2226ZM84.2394 84.21V94.7129H81.8793V90.6397C80.9094 91.1244 79.8942 91.3668 78.8403 91.3668C77.5406 91.3668 76.5514 91.0571 75.8595 90.4309C75.1677 89.8115 74.8185 88.8555 74.8185 87.5696V84.21H77.1786V87.4147C77.1786 88.0813 77.3661 88.5795 77.7476 88.9094C78.1226 89.2393 78.6593 89.4009 79.3511 89.4009C80.2305 89.4009 81.0775 89.2056 81.8793 88.8084V84.21H84.2394ZM67.997 92.7604C68.8763 92.7604 69.594 92.4575 70.1501 91.8448C70.7062 91.2321 70.9778 90.4444 70.9778 89.4749C70.9778 88.5054 70.6997 87.711 70.1501 87.0983C69.594 86.4789 68.8763 86.1759 67.997 86.1759C67.1176 86.1759 66.387 86.4789 65.8438 87.0781C65.3007 87.684 65.0291 88.4718 65.0291 89.4547C65.0291 90.4377 65.3007 91.2321 65.8503 91.8448C66.3999 92.4575 67.1111 92.7604 67.9905 92.7604H67.997ZM68.0939 84.0888C69.1414 84.0888 70.0531 84.311 70.842 84.7553C71.6308 85.1997 72.2386 85.8326 72.6718 86.6405C73.105 87.4551 73.3249 88.3977 73.3249 89.4749C73.3249 90.5521 73.118 91.4745 72.7042 92.2892C72.2903 93.1038 71.7084 93.7299 70.9583 94.1743C70.2083 94.6186 69.3419 94.8408 68.3591 94.8408C66.9624 94.8408 65.8632 94.3763 65.0744 93.4472V98.5168H62.6949V89.4951C62.6949 88.4314 62.9212 87.4955 63.3738 86.6741C63.8265 85.8528 64.4601 85.2199 65.2683 84.7688C66.0831 84.3177 67.0206 84.0888 68.0939 84.0888ZM55.7053 86.0547C54.8388 86.0547 54.134 86.351 53.5974 86.9367C53.0607 87.5292 52.7956 88.3169 52.7956 89.3133V89.3335L58.4986 88.1957C58.3369 87.5561 58.0071 87.0377 57.5092 86.6405C57.0114 86.25 56.4101 86.048 55.7053 86.048V86.0547ZM56.1385 92.7604C57.2312 92.7604 58.1494 92.3834 58.8736 91.6226L60.1215 93.1375C59.6818 93.703 59.1128 94.1272 58.421 94.4167C57.7291 94.7062 56.9467 94.8476 56.0803 94.8476C54.9746 94.8476 53.9983 94.6186 53.1512 94.1608C52.3107 93.703 51.6576 93.0634 51.1985 92.242C50.7394 91.4206 50.5067 90.4983 50.5067 89.4615C50.5067 88.4246 50.733 87.5157 51.1791 86.7011C51.6253 85.8797 52.246 85.2401 53.0284 84.7823C53.8172 84.3245 54.703 84.0955 55.6988 84.0955C56.6945 84.0955 57.5028 84.311 58.2787 84.7351C59.0546 85.1593 59.6689 85.772 60.1215 86.5664C60.5741 87.3609 60.8004 88.29 60.8004 89.347L53.0801 90.9224C53.3193 91.5284 53.7008 91.9862 54.231 92.2959C54.7612 92.6123 55.3949 92.7672 56.1385 92.7672V92.7604ZM46.071 94.7062V87.7446L42.67 93.602H41.6484L38.3055 87.7244V94.7062H36.1523V84.2033H38.6288L42.2174 90.7676L45.9741 84.2033H48.1854L48.2048 94.7062H46.071Z" fill="#6638B4"/>
<mask id="mask0_10494_10415" style="mask-type:luminance" maskUnits="userSpaceOnUse" x="0" y="0" width="255" height="62">
<path d="M223.385 0.62915H254.279V29.7311H221.865V61.8035C220.281 61.7527 217.445 61.3402 214.738 60.5214C212.628 59.8803 210.594 58.9917 208.682 57.8936C204.237 55.3294 200.523 51.6543 197.931 47.2557C196.821 45.3642 195.923 43.3522 195.275 41.2639C194.441 38.5854 193.98 35.6975 193.98 32.7079V29.7311C193.98 26.7352 194.448 23.8536 195.275 21.1687C195.923 19.0805 196.821 17.0684 197.931 15.1769C200.523 10.772 204.23 7.1033 208.682 4.53903C210.594 3.43461 212.628 2.55235 214.738 1.91129C217.445 1.08615 220.364 0.62915 223.392 0.62915M224.874 47.2557V61.8098H254.286V47.2557C254.286 45.1167 253.811 43.0856 252.99 41.2639C251.527 38.0142 248.846 35.4563 245.639 33.9901C243.785 33.1395 241.745 32.7079 239.583 32.7079C237.421 32.7079 235.388 33.1522 233.527 33.9901C230.262 35.469 227.67 38.0332 226.176 41.2639C225.329 43.1046 224.88 45.1231 224.88 47.2557H224.874ZM190.644 29.7311C190.644 24.4121 189.194 19.474 186.692 15.1833C184.133 10.7974 180.399 7.03348 175.941 4.4819C171.63 2.01919 166.607 0.62915 161.238 0.62915H158.236C152.86 0.62915 147.844 2.01919 143.533 4.4819C139.075 7.02713 135.296 10.772 132.717 15.1833C130.228 19.4486 128.824 24.4185 128.824 29.7311V61.8035H158.236V29.7311H161.238V61.8035H190.65V29.7311H190.644ZM110.766 0.62915H96.0628V47.2557C96.0628 55.2595 102.612 61.8098 110.766 61.8098C118.919 61.8098 125.469 55.2659 125.469 47.2557V0.62915H110.766ZM78.3513 0.62915H63.6484V47.2557C63.6484 55.2659 70.2622 61.8098 78.3513 61.8098C86.4405 61.8098 93.0542 55.2659 93.0542 47.2557V0.62915H78.3513ZM0 32.7016H45.6034C47.7652 32.7016 49.8051 33.1332 51.659 33.9837C54.8665 35.4563 57.5479 38.0142 59.0105 41.2576C59.8316 43.0856 60.3063 45.1104 60.3063 47.2494C60.3063 49.3884 59.838 51.4195 59.0105 53.2411C57.5543 56.4338 54.8793 59.0742 51.659 60.515C49.8179 61.3338 47.7652 61.7972 45.6034 61.7972H0V32.6952V32.7016ZM30.8941 0.62915H60.3063V29.7311H14.7029C12.5411 29.7311 10.5012 29.3058 8.64726 28.4489C5.4334 26.9827 2.77764 24.4121 1.29581 21.175C0.493946 19.3407 0 17.3223 0 15.1833C0 13.0443 0.493946 11.0259 1.29581 9.19153C2.77764 6.01158 5.4334 3.38384 8.64726 1.91763C10.5012 1.12423 12.5411 0.635498 14.7029 0.635498H30.8941V0.62915ZM45.597 0.62915H30.8941H60.3063H45.6034H45.597Z" fill="white"/>
</mask>
<g mask="url(#mask0_10494_10415)">
<path d="M254.286 0.62915H0V61.8035H254.286V0.62915Z" fill="url(#paint0_linear_10494_10415)"/>
</g>
</g>
<defs>
<linearGradient id="paint0_linear_10494_10415" x1="-1.55882" y1="52.6699" x2="251.391" y2="9.60749" gradientUnits="userSpaceOnUse">
<stop stop-color="#6638B4"/>
<stop offset="1" stop-color="#E33888"/>
</linearGradient>
<clipPath id="clip0_10494_10415">
<rect width="254" height="96" fill="white" transform="translate(0 0.62915)"/>
</clipPath>
</defs>
</svg>
