<svg width="113" height="102" viewBox="0 0 113 102" fill="none" xmlns="http://www.w3.org/2000/svg">
<path fill-rule="evenodd" clip-rule="evenodd" d="M112.07 0C112.07 6.71 110.75 13.35 108.18 19.54C105.61 25.74 101.85 31.37 97.11 36.11C92.37 40.85 86.74 44.61 80.54 47.18C74.35 49.75 67.7 51.07 61 51.07V0H112.06H112.07Z" fill="#6638B3"/>
<path fill-rule="evenodd" clip-rule="evenodd" d="M51.07 101.86C44.36 101.86 37.72 100.54 31.53 97.98C25.33 95.42 19.71 91.67 14.96 86.94C10.22 82.21 6.46 76.6 3.89 70.42C1.32 64.24 0 57.62 0 50.93C0 44.24 1.32 37.62 3.89 31.44C6.46 25.26 10.22 19.65 14.96 14.92C19.7 10.19 25.33 6.43999 31.53 3.87999C37.73 1.31999 44.36 0 51.07 0V101.86Z" fill="#93BFD3"/>
<path fill-rule="evenodd" clip-rule="evenodd" d="M81.29 61.2891C92.49 61.2891 101.58 70.3691 101.58 81.5791C101.58 92.7891 92.5 101.869 81.29 101.869C70.08 101.869 61 92.7891 61 81.5791C61 70.3691 70.08 61.2891 81.29 61.2891Z" fill="#E23887"/>
</svg>
