<svg width="374" height="37" viewBox="0 0 374 37" fill="none" xmlns="http://www.w3.org/2000/svg">
<g clip-path="url(#clip0_9899_5163)">
<mask id="mask0_9899_5163" style="mask-type:luminance" maskUnits="userSpaceOnUse" x="0" y="0" width="154" height="38">
<path d="M135.11 0H153.795V17.6017H134.19V37C133.232 36.9693 131.517 36.7198 129.88 36.2245C128.603 35.8368 127.373 35.2993 126.217 34.6352C123.528 33.0843 121.282 30.8615 119.714 28.2011C119.043 27.0571 118.5 25.8401 118.108 24.5771C117.604 22.957 117.324 21.2103 117.324 19.4022V17.6017C117.324 15.7897 117.608 14.0468 118.108 12.4229C118.5 11.1599 119.043 9.94293 119.714 8.79892C121.282 6.13468 123.524 3.91575 126.217 2.36481C127.373 1.69683 128.603 1.16321 129.88 0.775472C131.517 0.276406 133.282 0 135.114 0M136.01 28.2011V37.0038H153.799V28.2011C153.799 26.9073 153.512 25.6789 153.016 24.5771C152.131 22.6115 150.509 21.0644 148.569 20.1776C147.448 19.6632 146.214 19.4022 144.907 19.4022C143.599 19.4022 142.369 19.6709 141.244 20.1776C139.269 21.0721 137.702 22.6231 136.798 24.5771C136.285 25.6904 136.014 26.9112 136.014 28.2011H136.01ZM115.307 17.6017C115.307 14.3846 114.43 11.3979 112.917 8.80276C111.369 6.15003 109.111 3.87352 106.414 2.33026C103.807 0.840735 100.769 0 97.5214 0H95.7056C92.4542 0 89.4201 0.840735 86.8128 2.33026C84.1163 3.86968 81.831 6.13468 80.2713 8.80276C78.7659 11.3825 77.9162 14.3885 77.9162 17.6017V37H95.7056V17.6017H97.5214V37H115.311V17.6017H115.307ZM66.9943 0H58.1015V28.2011C58.1015 33.042 62.0629 37.0038 66.9943 37.0038C71.9256 37.0038 75.887 33.0459 75.887 28.2011V0H66.9943ZM47.3891 0H38.4964V28.2011C38.4964 33.0459 42.4966 37.0038 47.3891 37.0038C52.2817 37.0038 56.2819 33.0459 56.2819 28.2011V0H47.3891ZM0 19.3983H27.5822C28.8898 19.3983 30.1236 19.6594 31.2449 20.1738C33.1848 21.0644 34.8066 22.6115 35.6912 24.5733C36.1879 25.6789 36.475 26.9035 36.475 28.1972C36.475 29.491 36.1917 30.7194 35.6912 31.8212C34.8105 33.7522 33.1926 35.3492 31.2449 36.2207C30.1313 36.7159 28.8898 36.9962 27.5822 36.9962H0V19.3945V19.3983ZM18.6856 0H36.475V17.6017H8.89274C7.58521 17.6017 6.3514 17.3445 5.23011 16.8262C3.28628 15.9394 1.68 14.3846 0.78374 12.4267C0.298753 11.3173 0 10.0965 0 8.80276C0 7.50903 0.298753 6.28823 0.78374 5.17877C1.68 3.25545 3.28628 1.66611 5.23011 0.779311C6.3514 0.29944 7.58521 0.00383897 8.89274 0.00383897H18.6856V0ZM27.5784 0H18.6856H36.475H27.5822H27.5784Z" fill="white"/>
</mask>
<g mask="url(#mask0_9899_5163)">
<path d="M153.799 0H0V37H153.799V0Z" fill="url(#paint0_linear_9899_5163)"/>
</g>
<path d="M366.699 21.8144C367.588 21.8144 368.324 21.5199 368.908 20.9373C369.492 20.3482 369.777 19.5824 369.777 18.6268C369.777 17.6711 369.485 16.8988 368.908 16.3162C368.324 15.7271 367.588 15.4391 366.699 15.4391C365.81 15.4391 365.074 15.7337 364.503 16.3162C363.926 16.9053 363.641 17.6711 363.641 18.6268C363.641 19.5824 363.926 20.3548 364.503 20.9373C365.081 21.5264 365.81 21.8144 366.699 21.8144ZM372.165 13.5213V23.7323H369.857V22.4101C369.459 22.8944 368.961 23.2544 368.377 23.4966C367.787 23.7388 367.144 23.8566 366.434 23.8566C365.425 23.8566 364.523 23.6406 363.734 23.2086C362.938 22.7766 362.321 22.1613 361.877 21.3759C361.432 20.5839 361.207 19.6675 361.207 18.6202C361.207 17.5729 361.432 16.6631 361.877 15.8777C362.321 15.0922 362.945 14.4835 363.734 14.0515C364.53 13.6195 365.432 13.4034 366.434 13.4034C367.104 13.4034 367.721 13.5213 368.284 13.7504C368.848 13.9795 369.332 14.3198 369.744 14.7649V13.5213H372.165ZM356.65 23.7323V16.9642L353.16 22.6588H352.112L348.683 16.9446V23.7323H346.474V13.5213H349.015L352.696 19.9031L356.55 13.5213H358.819L358.839 23.7323H356.65ZM338.594 21.8406C339.496 21.8406 340.232 21.5461 340.803 20.9504C341.373 20.3548 341.652 19.589 341.652 18.6464C341.652 17.7039 341.366 16.9315 340.803 16.3358C340.232 15.7337 339.496 15.4391 338.594 15.4391C337.692 15.4391 336.942 15.7337 336.385 16.3162C335.828 16.9053 335.549 17.6711 335.549 18.6268C335.549 19.5824 335.828 20.3548 336.391 20.9504C336.955 21.5461 337.685 21.8406 338.587 21.8406H338.594ZM338.693 13.41C339.768 13.41 340.703 13.626 341.512 14.058C342.322 14.49 342.945 15.1053 343.39 15.8907C343.834 16.6828 344.06 17.5991 344.06 18.6464C344.06 19.6937 343.847 20.5904 343.423 21.3824C342.998 22.1744 342.401 22.7832 341.632 23.2152C340.862 23.6472 339.973 23.8632 338.965 23.8632C337.532 23.8632 336.405 23.4115 335.595 22.5083V27.437H333.154V18.666C333.154 17.6319 333.387 16.722 333.851 15.9235C334.315 15.1249 334.965 14.5096 335.794 14.0711C336.63 13.6325 337.592 13.41 338.693 13.41ZM325.672 21.821C326.561 21.821 327.297 21.5264 327.881 20.9439C328.465 20.3548 328.75 19.589 328.75 18.6333C328.75 17.6777 328.458 16.9053 327.881 16.3227C327.297 15.7337 326.561 15.4457 325.672 15.4457C324.783 15.4457 324.047 15.7402 323.476 16.3227C322.899 16.9118 322.614 17.6777 322.614 18.6333C322.614 19.589 322.899 20.3613 323.476 20.9439C324.053 21.533 324.783 21.821 325.672 21.821ZM325.672 23.8632C324.624 23.8632 323.682 23.6406 322.846 23.1955C322.004 22.7504 321.354 22.1286 320.883 21.3301C320.412 20.5315 320.173 19.6348 320.173 18.6268C320.173 17.6188 320.412 16.722 320.883 15.93C321.354 15.138 322.01 14.5227 322.846 14.0776C323.689 13.6325 324.631 13.41 325.672 13.41C326.713 13.41 327.682 13.6325 328.518 14.0776C329.36 14.5227 330.01 15.1446 330.481 15.93C330.952 16.722 331.191 17.6188 331.191 18.6268C331.191 19.6348 330.952 20.5381 330.481 21.3301C330.01 22.1286 329.353 22.7504 328.518 23.1955C327.675 23.6406 326.727 23.8632 325.672 23.8632ZM312.558 21.893C315.092 21.6639 316.352 20.5708 316.352 18.6071C316.352 17.6384 316.04 16.8922 315.41 16.362C314.787 15.8318 313.831 15.5177 312.551 15.4129V21.893H312.558ZM306.515 18.6071C306.515 19.589 306.82 20.3548 307.437 20.8981C308.047 21.4479 308.996 21.7752 310.276 21.893V15.4129C308.996 15.5177 308.054 15.8318 307.437 16.3686C306.827 16.9053 306.515 17.6515 306.515 18.6071ZM318.72 18.6071C318.72 20.1846 318.19 21.4283 317.122 22.3381C316.054 23.2414 314.535 23.7585 312.558 23.8894V27.4436H310.269V23.909C308.293 23.7846 306.774 23.2675 305.719 22.3577C304.658 21.4544 304.134 20.2042 304.134 18.6137C304.134 17.0231 304.664 15.7991 305.719 14.9155C306.78 14.0318 308.293 13.5213 310.269 13.3969V9.55469H312.558V13.3969C314.535 13.5213 316.054 14.0318 317.122 14.9286C318.19 15.8187 318.72 17.0493 318.72 18.6202V18.6071ZM297.819 13.41C299.125 13.41 300.154 13.7831 300.916 14.5293C301.679 15.2755 302.057 16.3947 302.057 17.8871V23.7388H299.636V18.1948C299.636 17.3046 299.437 16.6304 299.033 16.1787C298.635 15.7271 298.057 15.498 297.308 15.498C296.492 15.498 295.842 15.7598 295.351 16.29C294.86 16.8202 294.615 17.5729 294.615 18.5548V23.7323H292.194V18.1882C292.194 17.298 291.995 16.6238 291.59 16.1722C291.192 15.7206 290.615 15.4915 289.865 15.4915C289.036 15.4915 288.386 15.7533 287.902 16.2769C287.418 16.8006 287.172 17.5599 287.172 18.5548V23.7323H284.751V13.5213H287.059V14.8238C287.444 14.3656 287.928 14.0122 288.512 13.77C289.096 13.5278 289.739 13.41 290.449 13.41C291.225 13.41 291.908 13.554 292.512 13.842C293.116 14.13 293.587 14.5555 293.938 15.1118C294.363 14.5751 294.913 14.1562 295.583 13.8616C296.253 13.5605 296.996 13.41 297.812 13.41H297.819ZM276.081 21.821C276.97 21.821 277.706 21.5264 278.29 20.9439C278.874 20.3548 279.159 19.589 279.159 18.6333C279.159 17.6777 278.867 16.9053 278.29 16.3227C277.706 15.7337 276.97 15.4457 276.081 15.4457C275.192 15.4457 274.456 15.7402 273.886 16.3227C273.309 16.9118 273.023 17.6777 273.023 18.6333C273.023 19.589 273.309 20.3613 273.886 20.9439C274.463 21.533 275.192 21.821 276.081 21.821ZM281.547 13.5278V23.7388H279.239V22.4166C278.841 22.901 278.343 23.261 277.759 23.5032C277.169 23.7454 276.526 23.8632 275.816 23.8632C274.808 23.8632 273.906 23.6472 273.116 23.2152C272.32 22.7832 271.703 22.1679 271.259 21.3824C270.814 20.5904 270.589 19.6741 270.589 18.6268C270.589 17.5795 270.814 16.6697 271.259 15.8842C271.703 15.0987 272.327 14.49 273.116 14.058C273.912 13.626 274.814 13.41 275.816 13.41C276.486 13.41 277.103 13.5278 277.667 13.7569C278.23 13.986 278.715 14.3264 279.126 14.7715V13.5278H281.547ZM268.221 13.5278V23.7388H265.8V15.5569H261.926L261.826 17.586C261.76 18.9344 261.634 20.0668 261.448 20.9766C261.262 21.8864 260.944 22.6064 260.5 23.1366C260.055 23.6668 259.445 23.9286 258.669 23.9286C258.304 23.9286 257.86 23.8566 257.329 23.7192L257.448 21.7097C257.627 21.749 257.787 21.7686 257.913 21.7686C258.403 21.7686 258.768 21.5723 259.014 21.1861C259.259 20.7999 259.418 20.3351 259.491 19.7919C259.564 19.2486 259.624 18.4762 259.677 17.4682L259.85 13.5278H268.221ZM255.571 13.5278V23.7388H253.17V15.5569H248.075V23.7388H245.654V13.5278H255.571ZM237.635 17.4289H242.961V19.4188H237.635V17.4289ZM234.941 13.5278V23.7388H232.52V19.7788C231.525 20.2501 230.484 20.4857 229.403 20.4857C228.069 20.4857 227.054 20.1846 226.345 19.5759C225.635 18.9737 225.277 18.0442 225.277 16.794V13.5278H227.698V16.6435C227.698 17.2915 227.89 17.7759 228.282 18.0966C228.666 18.4173 229.217 18.5744 229.927 18.5744C230.829 18.5744 231.698 18.3846 232.52 17.9984V13.5278H234.941ZM218.278 21.8406C219.181 21.8406 219.917 21.5461 220.487 20.9504C221.058 20.3548 221.336 19.589 221.336 18.6464C221.336 17.7039 221.051 16.9315 220.487 16.3358C219.917 15.7337 219.181 15.4391 218.278 15.4391C217.376 15.4391 216.627 15.7337 216.07 16.3162C215.512 16.9053 215.234 17.6711 215.234 18.6268C215.234 19.5824 215.512 20.3548 216.076 20.9504C216.64 21.5461 217.37 21.8406 218.272 21.8406H218.278ZM218.378 13.41C219.453 13.41 220.388 13.626 221.197 14.058C222.006 14.49 222.63 15.1053 223.074 15.8907C223.519 16.6828 223.744 17.5991 223.744 18.6464C223.744 19.6937 223.532 20.5904 223.108 21.3824C222.683 22.1744 222.086 22.7832 221.317 23.2152C220.547 23.6472 219.658 23.8632 218.65 23.8632C217.217 23.8632 216.089 23.4115 215.28 22.5083V27.437H212.839V18.666C212.839 17.6319 213.071 16.722 213.536 15.9235C214 15.1249 214.65 14.5096 215.479 14.0711C216.315 13.6325 217.277 13.41 218.378 13.41ZM205.669 15.3213C204.78 15.3213 204.057 15.6093 203.506 16.1787C202.956 16.7548 202.684 17.5206 202.684 18.4893V18.509L208.534 17.4028C208.368 16.7809 208.03 16.2769 207.519 15.8907C207.008 15.5111 206.392 15.3147 205.669 15.3147V15.3213ZM206.113 21.8406C207.234 21.8406 208.176 21.4741 208.919 20.7344L210.199 22.2072C209.748 22.757 209.164 23.1694 208.455 23.4508C207.745 23.7323 206.942 23.8697 206.053 23.8697C204.919 23.8697 203.917 23.6472 203.048 23.2021C202.186 22.757 201.516 22.1352 201.045 21.3366C200.574 20.5381 200.335 19.6413 200.335 18.6333C200.335 17.6253 200.568 16.7417 201.025 15.9497C201.483 15.1511 202.12 14.5293 202.922 14.0842C203.732 13.6391 204.64 13.4165 205.662 13.4165C206.683 13.4165 207.513 13.626 208.309 14.0384C209.105 14.4507 209.735 15.0464 210.199 15.8187C210.663 16.5911 210.896 17.4944 210.896 18.522L202.975 20.0537C203.221 20.6428 203.612 21.0879 204.156 21.389C204.7 21.6966 205.35 21.8472 206.113 21.8472V21.8406ZM195.785 23.7323V16.9642L192.296 22.6588H191.248L187.818 16.9446V23.7323H185.609V13.5213H188.15L191.831 19.9031L195.685 13.5213H197.954L197.974 23.7323H195.785Z" fill="#6638B4"/>
<path d="M172.278 7H171V30H172.278V7Z" fill="#6638B4"/>
</g>
<defs>
<linearGradient id="paint0_linear_9899_5163" x1="-0.942817" y1="31.4757" x2="152.048" y2="5.43036" gradientUnits="userSpaceOnUse">
<stop stop-color="#6638B4"/>
<stop offset="1" stop-color="#E33888"/>
</linearGradient>
<clipPath id="clip0_9899_5163">
<rect width="374" height="37" fill="white"/>
</clipPath>
</defs>
</svg>
