<svg width="101" height="24" viewBox="0 0 101 24" fill="none" xmlns="http://www.w3.org/2000/svg">
<mask id="mask0_9264_6751" style="mask-type:luminance" maskUnits="userSpaceOnUse" x="0" y="0" width="101" height="24">
<path d="M88.0633 0H100.182V11.4161H87.4669V23.9975C86.8454 23.9776 85.7331 23.8157 84.6712 23.4946C83.8433 23.2431 83.0456 22.8945 82.2957 22.4637C80.5518 21.4578 79.0947 20.0162 78.0781 18.2907C77.6428 17.5487 77.2905 16.7594 77.0363 15.9402C76.7092 14.8895 76.528 13.7566 76.528 12.5839V11.4161C76.528 10.2409 76.7117 9.11049 77.0363 8.05727C77.2905 7.2381 77.6428 6.4488 78.0781 5.70682C79.0947 3.97884 80.5493 2.53968 82.2957 1.53377C83.0456 1.10053 83.8433 0.754435 84.6712 0.502957C85.7331 0.179272 86.8781 0 88.0658 0M88.6471 18.2907V24H100.185V18.2907C100.185 17.4516 99.9988 16.6548 99.6767 15.9402C99.1029 14.6654 98.051 13.662 96.7928 13.0868C96.0656 12.7532 95.2654 12.5839 94.4173 12.5839C93.5693 12.5839 92.7716 12.7582 92.0418 13.0868C90.7609 13.667 89.7443 14.6729 89.158 15.9402C88.8258 16.6623 88.6497 17.4541 88.6497 18.2907H88.6471ZM75.2195 11.4161C75.2195 9.3296 74.6507 7.39247 73.6693 5.70931C72.6653 3.9888 71.2007 2.51229 69.4518 1.51136C67.7607 0.545285 65.7904 0 63.6841 0H62.5064C60.3977 0 58.4298 0.545285 56.7388 1.51136C54.9898 2.5098 53.5077 3.97884 52.4961 5.70931C51.5197 7.38251 50.9686 9.33209 50.9686 11.4161V23.9975H62.5064V11.4161H63.6841V23.9975H75.222V11.4161H75.2195ZM43.8848 0H38.1172V18.2907C38.1172 21.4304 40.6864 24 43.8848 24C47.0832 24 49.6525 21.4329 49.6525 18.2907V0H43.8848ZM31.1693 0H25.4016V18.2907C25.4016 21.4329 27.9961 24 31.1693 24C34.3425 24 36.937 21.4329 36.937 18.2907V0H31.1693ZM0.433594 12.5814H18.3229C19.1709 12.5814 19.9712 12.7507 20.6984 13.0843C21.9566 13.662 23.0085 14.6654 23.5823 15.9378C23.9044 16.6548 24.0906 17.4491 24.0906 18.2882C24.0906 19.1273 23.9069 19.9241 23.5823 20.6387C23.011 21.8911 21.9617 22.9269 20.6984 23.4921C19.9762 23.8133 19.1709 23.995 18.3229 23.995H0.433594V12.5789V12.5814ZM12.5527 0H24.0906V11.4161H6.20126C5.35322 11.4161 4.55299 11.2493 3.82574 10.9132C2.56501 10.338 1.52321 9.3296 0.941913 8.05976C0.627359 7.34018 0.433594 6.5484 0.433594 5.70931C0.433594 4.87021 0.627359 4.07843 0.941913 3.35885C1.52321 2.11142 2.56501 1.08061 3.82574 0.505447C4.55299 0.194211 5.35322 0.00248988 6.20126 0.00248988H12.5527V0ZM18.3204 0H12.5527H24.0906H18.3229H18.3204Z" fill="white"/>
</mask>
<g mask="url(#mask0_9264_6751)">
<path d="M100.185 0H0.433594V23.9975H100.185V0Z" fill="url(#paint0_linear_9264_6751)"/>
</g>
<defs>
<linearGradient id="paint0_linear_9264_6751" x1="-0.177899" y1="20.4146" x2="99.0492" y2="3.52203" gradientUnits="userSpaceOnUse">
<stop stop-color="#6638B4"/>
<stop offset="1" stop-color="#E33888"/>
</linearGradient>
</defs>
</svg>
