<svg width="40" height="40" viewBox="0 0 40 40" fill="none" xmlns="http://www.w3.org/2000/svg">
<path fill-rule="evenodd" clip-rule="evenodd" d="M33.125 34.3195C32.0557 33.4121 30.4443 33.4121 29.375 34.3195C28.3057 35.2268 26.6943 35.2268 25.625 34.3195C24.5557 33.4121 22.9443 33.4121 21.875 34.3195C20.8057 35.2268 19.1943 35.2268 18.125 34.3195C17.0557 33.4121 15.4443 33.4121 14.375 34.3195C13.3057 35.2268 11.6943 35.2268 10.625 34.3195C9.55569 33.4121 7.94431 33.4121 6.875 34.3195C6.14848 34.936 5 34.4436 5 33.5157V6.48432C5 5.55638 6.14848 5.06404 6.875 5.68053C7.94431 6.58789 9.55569 6.58789 10.625 5.68053C11.6943 4.77316 13.3057 4.77316 14.375 5.68053C15.4443 6.58789 17.0557 6.58789 18.125 5.68053C19.1943 4.77316 20.8057 4.77316 21.875 5.68053C22.9443 6.58789 24.5557 6.58789 25.625 5.68053C26.6943 4.77316 28.3057 4.77316 29.375 5.68053C30.4443 6.58789 32.0557 6.58789 33.125 5.68053C33.8515 5.06404 35 5.55638 35 6.48432V33.5157C35 34.4436 33.8515 34.936 33.125 34.3195ZM11.25 20C11.25 19.3096 11.8096 18.75 12.5 18.75H27.5C28.1904 18.75 28.75 19.3096 28.75 20C28.75 20.6904 28.1904 21.25 27.5 21.25H12.5C11.8096 21.25 11.25 20.6904 11.25 20ZM12.5 12.9167C11.8096 12.9167 11.25 13.4763 11.25 14.1667C11.25 14.857 11.8096 15.4167 12.5 15.4167H27.5C28.1904 15.4167 28.75 14.857 28.75 14.1667C28.75 13.4763 28.1904 12.9167 27.5 12.9167H12.5ZM11.25 25.8333C11.25 25.143 11.8096 24.5833 12.5 24.5833H27.5C28.1904 24.5833 28.75 25.143 28.75 25.8333C28.75 26.5237 28.1904 27.0833 27.5 27.0833H12.5C11.8096 27.0833 11.25 26.5237 11.25 25.8333Z" fill="white"/>
</svg>
