<svg width="40" height="40" viewBox="0 0 40 40" fill="none" xmlns="http://www.w3.org/2000/svg">
<path d="M23.334 6.66675H16.6673C10.3819 6.66675 7.23923 6.66675 5.28661 8.61937C3.8807 10.0253 3.48706 12.0481 3.37685 15.4167H36.6245C36.5142 12.0481 36.1206 10.0253 34.7147 8.61937C32.7621 6.66675 29.6194 6.66675 23.334 6.66675Z" fill="white"/>
<path d="M16.6673 33.3334H23.334C29.6194 33.3334 32.7621 33.3334 34.7147 31.3808C36.6673 29.4282 36.6673 26.2855 36.6673 20.0001C36.6673 19.2635 36.6673 18.5701 36.6642 17.9167H3.33713C3.33398 18.5701 3.33398 19.2635 3.33398 20.0001C3.33398 26.2855 3.33398 29.4282 5.28661 31.3808C7.23923 33.3334 10.3819 33.3334 16.6673 33.3334Z" fill="white"/>
<path fill-rule="evenodd" clip-rule="evenodd" d="M8.75065 26.6667C8.75065 25.9764 9.3103 25.4167 10.0007 25.4167H16.6673C17.3577 25.4167 17.9173 25.9764 17.9173 26.6667C17.9173 27.3571 17.3577 27.9167 16.6673 27.9167H10.0007C9.3103 27.9167 8.75065 27.3571 8.75065 26.6667Z" fill="#6B3EB2"/>
<path fill-rule="evenodd" clip-rule="evenodd" d="M19.584 26.6667C19.584 25.9764 20.1436 25.4167 20.834 25.4167H23.334C24.0243 25.4167 24.584 25.9764 24.584 26.6667C24.584 27.3571 24.0243 27.9167 23.334 27.9167H20.834C20.1436 27.9167 19.584 27.3571 19.584 26.6667Z" fill="#6B3EB2"/>
</svg>
