<svg style="display: none" xmlns="http://www.w3.org/2000/svg">
<symbol id="arrow" viewBox="0 0 12 13">
<path d="M2 5.5L6 9.5L10 5.5" stroke="inherit" stroke-width="2" stroke-linecap="round" fill="inherit" stroke-linejoin="round"/>
  </symbol>

<symbol id="star" viewBox="0 0 24 24">
    <path d="M9.15316 5.40838C10.4198 3.13613 11.0531 2 12 2C12.9469 2 13.5802 3.13612 14.8468 5.40837L15.1745 5.99623C15.5345 6.64193 15.7144 6.96479 15.9951 7.17781C16.2757 7.39083 16.6251 7.4699 17.3241 7.62805L17.9605 7.77203C20.4201 8.32856 21.65 8.60682 21.9426 9.54773C22.2352 10.4886 21.3968 11.4691 19.7199 13.4299L19.2861 13.9372C18.8096 14.4944 18.5713 14.773 18.4641 15.1177C18.357 15.4624 18.393 15.8341 18.465 16.5776L18.5306 17.2544C18.7841 19.8706 18.9109 21.1787 18.1449 21.7602C17.3788 22.3417 16.2273 21.8115 13.9243 20.7512L13.3285 20.4768C12.6741 20.1755 12.3469 20.0248 12 20.0248C11.6531 20.0248 11.3259 20.1755 10.6715 20.4768L10.0757 20.7512C7.77268 21.8115 6.62118 22.3417 5.85515 21.7602C5.08912 21.1787 5.21588 19.8706 5.4694 17.2544L5.53498 16.5776C5.60703 15.8341 5.64305 15.4624 5.53586 15.1177C5.42868 14.773 5.19043 14.4944 4.71392 13.9372L4.2801 13.4299C2.60325 11.4691 1.76482 10.4886 2.05742 9.54773C2.35002 8.60682 3.57986 8.32856 6.03954 7.77203L6.67589 7.62805C7.37485 7.4699 7.72433 7.39083 8.00494 7.17781C8.28555 6.96479 8.46553 6.64194 8.82547 5.99623L9.15316 5.40838Z" fill="inherit"/>
</symbol>

<symbol id="account" viewBox="0 0 24 24">
    <circle cx="12" cy="6" r="4" fill="inherit"/>
    <path d="M20 17.5C20 19.9853 20 22 12 22C4 22 4 19.9853 4 17.5C4 15.0147 7.58172 13 12 13C16.4183 13 20 15.0147 20 17.5Z" fill="inherit"/>
</symbol>

<symbol id="cart" viewBox="0 0 32 32">
    <path fill-rule="evenodd" clip-rule="evenodd" d="M10.9999 9.33535L10.9999 8C10.9999 5.23858 13.2385 3 15.9999 3C18.7613 3 20.9999 5.23858 20.9999 8V9.33333L20.9999 9.33535C24.5791 9.35147 26.4807 9.49626 27.5474 10.7974C28.7476 12.2614 28.3049 14.475 27.4194 18.9023L26.6194 22.9023C26.0037 25.9808 25.6959 27.5201 24.59 28.4267C23.484 29.3333 21.9143 29.3333 18.7748 29.3333H13.225C10.0855 29.3333 8.51573 29.3333 7.40982 28.4267C6.3039 27.5201 5.99605 25.9808 5.38034 22.9023L4.58034 18.9023C3.6949 14.475 3.25217 12.2614 4.4524 10.7974C5.51907 9.49625 7.42075 9.35146 10.9999 9.33535ZM12.9999 8C12.9999 6.34315 14.3431 5 15.9999 5C17.6568 5 18.9999 6.34315 18.9999 8V9.33333H12.9999V8ZM19.9999 14.6667C20.7363 14.6667 21.3332 14.0697 21.3332 13.3333C21.3332 12.597 20.7363 12 19.9999 12C19.2635 12 18.6666 12.597 18.6666 13.3333C18.6666 14.0697 19.2635 14.6667 19.9999 14.6667ZM13.3332 13.3333C13.3332 14.0697 12.7363 14.6667 11.9999 14.6667C11.2635 14.6667 10.6666 14.0697 10.6666 13.3333C10.6666 12.597 11.2635 12 11.9999 12C12.7363 12 13.3332 12.597 13.3332 13.3333Z" fill="inherit"/>
</symbol>

<symbol id="search" viewBox="0 0 24 24">
    <path fill-rule="evenodd" clip-rule="evenodd" d="M17.8194 19.7006C17.7302 18.6064 18.6357 17.6929 19.7205 17.783C19.9086 17.7986 20.1337 17.8671 20.363 17.9368C20.3851 17.9435 20.4073 17.9502 20.4294 17.9569C20.4494 17.9629 20.4694 17.9689 20.4894 17.975C20.7001 18.0383 20.9097 18.1013 21.0692 18.1874C21.9844 18.6818 22.2799 19.8631 21.7067 20.7363C21.6068 20.8884 21.4519 21.0441 21.2962 21.2007C21.2814 21.2156 21.2666 21.2305 21.2519 21.2454C21.2371 21.2602 21.2224 21.2752 21.2076 21.2901C21.0524 21.4471 20.898 21.6034 20.7472 21.7041C19.8816 22.2823 18.7105 21.9843 18.2204 21.0611C18.135 20.9002 18.0725 20.6888 18.0097 20.4762C18.0038 20.4561 17.9978 20.4359 17.9918 20.4157C17.9852 20.3934 17.9785 20.3711 17.9719 20.3488C17.9028 20.1175 17.8349 19.8903 17.8194 19.7006Z" fill="inherit"/>
    <path d="M20.1278 11.1429C20.1278 16.1924 16.0697 20.2858 11.0639 20.2858C6.05804 20.2858 2 16.1924 2 11.1429C2 6.09342 6.05804 2 11.0639 2C16.0697 2 20.1278 6.09342 20.1278 11.1429Z" fill="inherit"/>
</symbol>

<symbol id="arrowDown" viewBox="0 0 12 12">
    <path d="M2 5L6 9L10 5" stroke="inherit" stroke-width="2" stroke-linecap="round" stroke-linejoin="round"/>
</symbol>

<symbol id="phone" viewBox="0 0 21 20">
    <path d="M8.86482 4.43006L9.40567 5.39917C9.89375 6.27374 9.69781 7.42102 8.92909 8.18975C8.92909 8.18975 8.92909 8.18975 8.92909 8.18975C8.92897 8.18987 7.99675 9.12231 9.68726 10.8128C11.3771 12.5027 12.3095 11.5718 12.3103 11.571C12.3104 11.571 12.3103 11.571 12.3104 11.571C13.0791 10.8023 14.2264 10.6063 15.1009 11.0944L16.07 11.6353C17.3906 12.3723 17.5466 14.2243 16.3858 15.3851C15.6883 16.0826 14.8338 16.6253 13.8893 16.6611C12.2991 16.7214 9.59873 16.319 6.88992 13.6102C4.1811 10.9014 3.77867 8.20094 3.83896 6.61082C3.87476 5.66625 4.4175 4.81178 5.115 4.11428C6.27579 2.95349 8.12781 3.10945 8.86482 4.43006Z" fill="inherit"/>
</symbol>

<symbol id="menu" viewBox="0 0 21 20">
    <rect x="4" y="4" rx="1" fill="inherit"/>
    <rect x="4" y="9" rx="1" fill="inherit"/>
    <rect x="4" y="14" rx="1" fill="inherit"/>
</symbol>

<symbol id="close" viewBox="0 0 19 19">
    <path d="M3.1665 3.16675L9.49984 9.50008M15.8332 15.8334L9.49984 9.50008M9.49984 9.50008L3.1665 15.8334L15.8332 3.16675" stroke="inherit" stroke-width="2" stroke-linecap="round" stroke-linejoin="round"/>
</symbol>

<symbol id="close2" viewBox="0 0 24 24">
    <g opacity="0.5"><path d="M2 2L12.5 12.5M23 23L12.5 12.5M12.5 12.5L2 23L23 2" stroke="inherit" stroke-linecap="round" stroke-linejoin="round"/></g>
</symbol>

<symbol id="delete" viewBox="0 0 24 24">
    <path d="M20.7257 6.79688C21.2218 6.79688 21.5659 6.29527 21.3798 5.83528C20.7192 4.20211 19.1169 3.04688 17.2497 3.04688H16.3865C16.0647 1.34658 14.5739 0 12.7497 0H11.2497C9.42669 0 7.93494 1.34569 7.61286 3.04688H6.74971C4.88249 3.04688 3.28021 4.20211 2.6196 5.83528C2.43355 6.29527 2.77757 6.79688 3.27374 6.79688H20.7257ZM11.2497 1.40625H12.7497C13.7763 1.40625 14.6477 2.09691 14.941 3.04688H9.05839C9.35174 2.09691 10.2231 1.40625 11.2497 1.40625Z" fill="inherit"/>
    <path d="M5.20416 22.0404C5.28239 23.1393 6.20663 24 7.30819 24H16.6889C17.7904 24 18.7147 23.1393 18.7929 22.0404L19.7784 8.20312H4.21875L5.20416 22.0404ZM13.9213 11.9649C13.9407 11.577 14.2714 11.2779 14.6587 11.2978C15.0465 11.3172 15.3452 11.6473 15.3258 12.0351L14.9508 19.5351C14.932 19.911 14.6213 20.2031 14.2491 20.2031C13.8443 20.2031 13.5263 19.8645 13.5463 19.4649L13.9213 11.9649ZM9.33844 11.2978C9.72577 11.2783 10.0564 11.5771 10.0758 11.9649L10.4508 19.4649C10.4708 19.8647 10.1526 20.2031 9.74794 20.2031C9.37575 20.2031 9.06507 19.911 9.04627 19.5351L8.67127 12.0351C8.65191 11.6473 8.9506 11.3172 9.33844 11.2978Z" fill="inherit"/>
</symbol>

<symbol id="minus" viewBox="0 0 24 24">
    <path d="M17 12H8" stroke="inherit" stroke-width="2" stroke-linecap="round" stroke-linejoin="round"/>
</symbol>

<symbol id="plus" viewBox="0 0 24 24">
    <path d="M12 6V12M12 12V18M12 12H6M12 12H18" stroke="inherit" stroke-width="2" stroke-linecap="round" stroke-linejoin="round"/>
</symbol>

<symbol id="loading" viewBox="0 0 24 25">
    <path d="M21.9998 13.1978C21.9983 14.6674 21.9871 15.9165 21.9036 16.9414C21.8067 18.1308 21.6081 19.1246 21.1636 19.95C20.9676 20.314 20.7267 20.6401 20.4334 20.9334C19.601 21.7657 18.5405 22.1428 17.1966 22.3235C15.8835 22.5 14.2007 22.5 12.0534 22.5H11.9466C9.79929 22.5 8.11646 22.5 6.80345 22.3235C5.45951 22.1428 4.39902 21.7657 3.56664 20.9334C2.82871 20.1954 2.44763 19.277 2.24498 18.1376C2.04591 17.0184 2.00949 15.6259 2.00192 13.8967C2 13.4569 2 12.9917 2 12.5009V12.4466C1.99999 10.2993 1.99998 8.61646 2.17651 7.30345C2.3572 5.95951 2.73426 4.89902 3.56664 4.06664C4.39902 3.23426 5.45951 2.8572 6.80345 2.67651C7.97111 2.51952 9.47346 2.50215 11.302 2.50024C11.6873 2.49983 12 2.81236 12 3.19767C12 3.58299 11.6872 3.8952 11.3019 3.89561C9.44749 3.89757 8.06751 3.91446 6.98937 4.05941C5.80016 4.2193 5.08321 4.52339 4.5533 5.0533C4.02339 5.58321 3.7193 6.30016 3.55941 7.48937C3.39683 8.69866 3.39535 10.2877 3.39535 12.5C3.39535 12.7702 3.39535 13.0314 3.39567 13.2844L4.32696 12.4696C5.17465 11.7278 6.45225 11.7704 7.24872 12.5668L11.2392 16.5573C11.8785 17.1966 12.8848 17.2837 13.6245 16.7639L13.9019 16.5689C14.9663 15.8209 16.4064 15.9076 17.3734 16.7779L20.0064 19.1476C20.2714 18.591 20.4288 17.8597 20.5128 16.8281C20.592 15.8561 20.6029 14.6755 20.6044 13.1979C20.6048 12.8126 20.917 12.5 21.3023 12.5C21.6876 12.5 22.0002 12.8125 21.9998 13.1978Z" fill="inherit"/>
    <path fill-rule="evenodd" clip-rule="evenodd" d="M17.5 2.5C15.3787 2.5 14.318 2.5 13.659 3.15901C13 3.81802 13 4.87868 13 7C13 9.12132 13 10.182 13.659 10.841C14.318 11.5 15.3787 11.5 17.5 11.5C19.6213 11.5 20.682 11.5 21.341 10.841C22 10.182 22 9.12132 22 7C22 4.87868 22 3.81802 21.341 3.15901C20.682 2.5 19.6213 2.5 17.5 2.5ZM19.5303 8.03033L18.0303 9.53033C17.7374 9.82322 17.2626 9.82322 16.9697 9.53033L15.4697 8.03033C15.1768 7.73744 15.1768 7.26256 15.4697 6.96967C15.7626 6.67678 16.2374 6.67678 16.5303 6.96967L16.75 7.18934V5C16.75 4.58579 17.0858 4.25 17.5 4.25C17.9142 4.25 18.25 4.58579 18.25 5V7.18934L18.4697 6.96967C18.7626 6.67678 19.2374 6.67678 19.5303 6.96967C19.8232 7.26256 19.8232 7.73744 19.5303 8.03033Z" fill="inherit"/>
</symbol>

<symbol id="multiply" viewBox="0 0 14 14">
    <path d="M1 1L7 7M13 13L7 7M7 7L1 13L13 1" stroke="inherit" stroke-width="2" stroke-linecap="round" stroke-linejoin="round"/>
</symbol>

<symbol id="equality" viewBox="0 0 14 14">
    <path d="M1 4H13" stroke="inherit" stroke-width="2" stroke-linecap="round" stroke-linejoin="round"/>
    <path d="M1 10H13" stroke="inherit" stroke-width="2" stroke-linecap="round" stroke-linejoin="round"/>
</symbol>

<symbol id="arrowFilter" viewBox="0 0 32 32">
    <path d="M8 13L15 19L22 13" stroke="inherit" stroke-width="2" stroke-linecap="round" stroke-linejoin="round"/>
</symbol>

<symbol id="grid1" viewBox="0 0 24 24">
    <path d="M1 5C1 3.58579 1 2.87868 1.43934 2.43934C1.87868 2 2.58579 2 4 2C5.41421 2 6.12132 2 6.56066 2.43934C7 2.87868 7 3.58579 7 5C7 6.41421 7 7.12132 6.56066 7.56066C6.12132 8 5.41421 8 4 8C2.58579 8 1.87868 8 1.43934 7.56066C1 7.12132 1 6.41421 1 5Z" fill="inherit"/>
    <path d="M9 5C9 3.58579 9 2.87868 9.43934 2.43934C9.87868 2 10.5858 2 12 2C13.4142 2 14.1213 2 14.5607 2.43934C15 2.87868 15 3.58579 15 5C15 6.41421 15 7.12132 14.5607 7.56066C14.1213 8 13.4142 8 12 8C10.5858 8 9.87868 8 9.43934 7.56066C9 7.12132 9 6.41421 9 5Z" fill="inherit"/>
    <path d="M17 5C17 3.58579 17 2.87868 17.4393 2.43934C17.8787 2 18.5858 2 20 2C21.4142 2 22.1213 2 22.5607 2.43934C23 2.87868 23 3.58579 23 5C23 6.41421 23 7.12132 22.5607 7.56066C22.1213 8 21.4142 8 20 8C18.5858 8 17.8787 8 17.4393 7.56066C17 7.12132 17 6.41421 17 5Z" fill="inherit"/>
    <path d="M1 12C1 10.5858 1 9.87868 1.43934 9.43934C1.87868 9 2.58579 9 4 9C5.41421 9 6.12132 9 6.56066 9.43934C7 9.87868 7 10.5858 7 12C7 13.4142 7 14.1213 6.56066 14.5607C6.12132 15 5.41421 15 4 15C2.58579 15 1.87868 15 1.43934 14.5607C1 14.1213 1 13.4142 1 12Z" fill="inherit"/>
    <path d="M9 12C9 10.5858 9 9.87868 9.43934 9.43934C9.87868 9 10.5858 9 12 9C13.4142 9 14.1213 9 14.5607 9.43934C15 9.87868 15 10.5858 15 12C15 13.4142 15 14.1213 14.5607 14.5607C14.1213 15 13.4142 15 12 15C10.5858 15 9.87868 15 9.43934 14.5607C9 14.1213 9 13.4142 9 12Z" fill="inherit"/>
    <path d="M17 12C17 10.5858 17 9.87868 17.4393 9.43934C17.8787 9 18.5858 9 20 9C21.4142 9 22.1213 9 22.5607 9.43934C23 9.87868 23 10.5858 23 12C23 13.4142 23 14.1213 22.5607 14.5607C22.1213 15 21.4142 15 20 15C18.5858 15 17.8787 15 17.4393 14.5607C17 14.1213 17 13.4142 17 12Z" fill="inherit"/>
    <path d="M1 19C1 17.5858 1 16.8787 1.43934 16.4393C1.87868 16 2.58579 16 4 16C5.41421 16 6.12132 16 6.56066 16.4393C7 16.8787 7 17.5858 7 19C7 20.4142 7 21.1213 6.56066 21.5607C6.12132 22 5.41421 22 4 22C2.58579 22 1.87868 22 1.43934 21.5607C1 21.1213 1 20.4142 1 19Z" fill="inherit"/>
    <path d="M9 19C9 17.5858 9 16.8787 9.43934 16.4393C9.87868 16 10.5858 16 12 16C13.4142 16 14.1213 16 14.5607 16.4393C15 16.8787 15 17.5858 15 19C15 20.4142 15 21.1213 14.5607 21.5607C14.1213 22 13.4142 22 12 22C10.5858 22 9.87868 22 9.43934 21.5607C9 21.1213 9 20.4142 9 19Z" fill="inherit"/>
    <path d="M17 19C17 17.5858 17 16.8787 17.4393 16.4393C17.8787 16 18.5858 16 20 16C21.4142 16 22.1213 16 22.5607 16.4393C23 16.8787 23 17.5858 23 19C23 20.4142 23 21.1213 22.5607 21.5607C22.1213 22 21.4142 22 20 22C18.5858 22 17.8787 22 17.4393 21.5607C17 21.1213 17 20.4142 17 19Z" fill="inherit"/>
</symbol>

<symbol id="grid2" viewBox="0 0 24 24">
    <path d="M2 6.21053C2 4.22567 2 3.23323 2.65901 2.61662C3.31802 2 4.37868 2 6.5 2C8.62132 2 9.68198 2 10.341 2.61662C11 3.23323 11 4.22567 11 6.21053V17.7895C11 19.7743 11 20.7668 10.341 21.3834C9.68198 22 8.62132 22 6.5 22C4.37868 22 3.31802 22 2.65901 21.3834C2 20.7668 2 19.7743 2 17.7895V6.21053Z" fill="inherit"/>
    <path d="M13 15.4C13 13.3258 13 12.2887 13.659 11.6444C14.318 11 15.3787 11 17.5 11C19.6213 11 20.682 11 21.341 11.6444C22 12.2887 22 13.3258 22 15.4V17.6C22 19.6742 22 20.7113 21.341 21.3556C20.682 22 19.6213 22 17.5 22C15.3787 22 14.318 22 13.659 21.3556C13 20.7113 13 19.6742 13 17.6V15.4Z" fill="inherit"/>
    <path d="M13 5.5C13 4.4128 13 3.8692 13.1713 3.44041C13.3996 2.86867 13.8376 2.41443 14.389 2.17761C14.8024 2 15.3266 2 16.375 2H18.625C19.6734 2 20.1976 2 20.611 2.17761C21.1624 2.41443 21.6004 2.86867 21.8287 3.44041C22 3.8692 22 4.4128 22 5.5C22 6.5872 22 7.1308 21.8287 7.55959C21.6004 8.13133 21.1624 8.58557 20.611 8.82239C20.1976 9 19.6734 9 18.625 9H16.375C15.3266 9 14.8024 9 14.389 8.82239C13.8376 8.58557 13.3996 8.13133 13.1713 7.55959C13 7.1308 13 6.5872 13 5.5Z" fill="inherit"/>
</symbol>

<symbol id="filter" viewBox="0 0 24 24">
    <path d="M16 15.25C16.6904 15.25 17.25 14.6904 17.25 14C17.25 13.3096 16.6904 12.75 16 12.75C15.3096 12.75 14.75 13.3096 14.75 14C14.75 14.6904 15.3096 15.25 16 15.25Z" fill="inherit"/>
    <path d="M9.25 10C9.25 9.30964 8.69036 8.75 8 8.75C7.30964 8.75 6.75 9.30964 6.75 10C6.75 10.6904 7.30964 11.25 8 11.25C8.69036 11.25 9.25 10.6904 9.25 10Z" fill="inherit"/>
    <path fill-rule="evenodd" clip-rule="evenodd" d="M12 22C7.28595 22 4.92893 22 3.46447 20.5355C2 19.0711 2 16.714 2 12C2 7.28595 2 4.92893 3.46447 3.46447C4.92893 2 7.28595 2 12 2C16.714 2 19.0711 2 20.5355 3.46447C22 4.92893 22 7.28595 22 12C22 16.714 22 19.0711 20.5355 20.5355C19.0711 22 16.714 22 12 22ZM18.75 14C18.75 15.5188 17.5188 16.75 16 16.75C14.4812 16.75 13.25 15.5188 13.25 14C13.25 12.4812 14.4812 11.25 16 11.25C17.5188 11.25 18.75 12.4812 18.75 14ZM8 7.25C9.51878 7.25 10.75 8.48122 10.75 10C10.75 11.5188 9.51878 12.75 8 12.75C6.48122 12.75 5.25 11.5188 5.25 10C5.25 8.48122 6.48122 7.25 8 7.25ZM16 10.75C15.5858 10.75 15.25 10.4142 15.25 10V5C15.25 4.58579 15.5858 4.25 16 4.25C16.4142 4.25 16.75 4.58579 16.75 5V10C16.75 10.4142 16.4142 10.75 16 10.75ZM7.25 14C7.25 13.5858 7.58579 13.25 8 13.25C8.41421 13.25 8.75 13.5858 8.75 14L8.75 19C8.75 19.4142 8.41421 19.75 8 19.75C7.58579 19.75 7.25 19.4142 7.25 19L7.25 14ZM16 19.75C15.5858 19.75 15.25 19.4142 15.25 19V18C15.25 17.5858 15.5858 17.25 16 17.25C16.4142 17.25 16.75 17.5858 16.75 18V19C16.75 19.4142 16.4142 19.75 16 19.75ZM7.25 5C7.25 4.58579 7.58579 4.25 8 4.25C8.41421 4.25 8.75 4.58579 8.75 5V6C8.75 6.41421 8.41421 6.75 8 6.75C7.58579 6.75 7.25 6.41421 7.25 6V5Z" fill="inherit"/>
</symbol>

<symbol id="sorting" viewBox="0 0 24 24">
    <path fill-rule="evenodd" clip-rule="evenodd" d="M2 12C2 7.28595 2 4.92893 3.46447 3.46447C4.92893 2 7.28595 2 12 2C16.714 2 19.0711 2 20.5355 3.46447C22 4.92893 22 7.28595 22 12C22 16.714 22 19.0711 20.5355 20.5355C19.0711 22 16.714 22 12 22C7.28595 22 4.92893 22 3.46447 20.5355C2 19.0711 2 16.714 2 12ZM7.55495 12.7455C7.27632 12.439 6.80199 12.4164 6.49549 12.695C6.189 12.9737 6.16641 13.448 6.44504 13.7545L8.94504 16.5045C9.08719 16.6609 9.28869 16.75 9.5 16.75C9.71131 16.75 9.91281 16.6609 10.055 16.5045L12.555 13.7545C12.8336 13.448 12.811 12.9737 12.5045 12.695C12.198 12.4164 11.7237 12.439 11.445 12.7455L10.25 14.06V8C10.25 7.58579 9.91421 7.25 9.5 7.25C9.08579 7.25 8.75 7.58579 8.75 8V14.06L7.55495 12.7455ZM11.4955 11.305C11.802 11.5836 12.2763 11.561 12.555 11.2545L13.75 9.93995L13.75 16C13.75 16.4142 14.0858 16.75 14.5 16.75C14.9142 16.75 15.25 16.4142 15.25 16L15.25 9.93995L16.445 11.2545C16.7237 11.561 17.198 11.5836 17.5045 11.305C17.811 11.0263 17.8336 10.552 17.555 10.2455L15.055 7.49549C14.9128 7.33914 14.7113 7.25 14.5 7.25C14.2887 7.25 14.0872 7.33914 13.945 7.49549L11.445 10.2455C11.1664 10.552 11.189 11.0263 11.4955 11.305Z" fill="inherit"/>
</symbol>

<symbol id="design" viewBox="0 0 24 24">
    <path d="M9 8.25C8.58579 8.25 8.25 8.58579 8.25 9C8.25 9.41421 8.58579 9.75 9 9.75H11.25L11.25 15C11.25 15.4142 11.5858 15.75 12 15.75C12.4142 15.75 12.75 15.4142 12.75 15L12.75 9.75H15C15.4142 9.75 15.75 9.41421 15.75 9C15.75 8.58579 15.4142 8.25 15 8.25H9Z" fill="inherit"/>
    <path fill-rule="evenodd" clip-rule="evenodd" d="M3.25 6.64648C2.09575 6.32002 1.25 5.25878 1.25 4C1.25 2.48122 2.48122 1.25 4 1.25C5.25878 1.25 6.32002 2.09575 6.64648 3.25H17.3535C17.68 2.09575 18.7412 1.25 20 1.25C21.5188 1.25 22.75 2.48122 22.75 4C22.75 5.25878 21.9043 6.32002 20.75 6.64648V17.3535C21.9043 17.68 22.75 18.7412 22.75 20C22.75 21.5188 21.5188 22.75 20 22.75C18.7412 22.75 17.68 21.9043 17.3535 20.75H6.64648C6.32002 21.9043 5.25878 22.75 4 22.75C2.48122 22.75 1.25 21.5188 1.25 20C1.25 18.7412 2.09575 17.68 3.25 17.3535L3.25 6.64648ZM4 2.75C3.30964 2.75 2.75 3.30964 2.75 4C2.75 4.69036 3.30964 5.25 4 5.25C4.69036 5.25 5.25 4.69036 5.25 4C5.25 3.30964 4.69036 2.75 4 2.75ZM4.75 17.3535L4.75 6.64648C5.66584 6.38745 6.38745 5.66584 6.64648 4.75H17.3535C17.6125 5.66584 18.3342 6.38745 19.25 6.64648V17.3535C18.3342 17.6125 17.6125 18.3342 17.3535 19.25H6.64648C6.38745 18.3342 5.66584 17.6125 4.75 17.3535ZM4 18.75C3.30964 18.75 2.75 19.3096 2.75 20C2.75 20.6904 3.30964 21.25 4 21.25C4.69036 21.25 5.25 20.6904 5.25 20C5.25 19.3096 4.69036 18.75 4 18.75ZM21.25 4C21.25 4.69036 20.6904 5.25 20 5.25C19.3096 5.25 18.75 4.69036 18.75 4C18.75 3.30964 19.3096 2.75 20 2.75C20.6904 2.75 21.25 3.30964 21.25 4ZM18.75 20C18.75 19.3096 19.3096 18.75 20 18.75C20.6904 18.75 21.25 19.3096 21.25 20C21.25 20.6904 20.6904 21.25 20 21.25C19.3096 21.25 18.75 20.6904 18.75 20Z" fill="inherit"/>
</symbol>

<symbol id="order" viewBox="0 0 24 24">
    <path fill-rule="evenodd" clip-rule="evenodd" d="M2.06935 5.00839C2 5.37595 2 5.81722 2 6.69975V13.75C2 17.5212 2 19.4069 3.17157 20.5784C4.34315 21.75 6.22876 21.75 10 21.75H14C17.7712 21.75 19.6569 21.75 20.8284 20.5784C22 19.4069 22 17.5212 22 13.75V11.5479C22 8.91554 22 7.59935 21.2305 6.74383C21.1598 6.66514 21.0849 6.59024 21.0062 6.51946C20.1506 5.75 18.8345 5.75 16.2021 5.75H15.8284C14.6747 5.75 14.0979 5.75 13.5604 5.59678C13.2651 5.5126 12.9804 5.39471 12.7121 5.24543C12.2237 4.97367 11.8158 4.56578 11 3.75L10.4497 3.19975C10.1763 2.92633 10.0396 2.78961 9.89594 2.67051C9.27652 2.15704 8.51665 1.84229 7.71557 1.76738C7.52976 1.75 7.33642 1.75 6.94975 1.75C6.06722 1.75 5.62595 1.75 5.25839 1.81935C3.64031 2.12464 2.37464 3.39031 2.06935 5.00839ZM12 11C12.4142 11 12.75 11.3358 12.75 11.75V13H14C14.4142 13 14.75 13.3358 14.75 13.75C14.75 14.1642 14.4142 14.5 14 14.5H12.75V15.75C12.75 16.1642 12.4142 16.5 12 16.5C11.5858 16.5 11.25 16.1642 11.25 15.75V14.5H10C9.58579 14.5 9.25 14.1642 9.25 13.75C9.25 13.3358 9.58579 13 10 13H11.25V11.75C11.25 11.3358 11.5858 11 12 11Z" fill="inherit"/>
</symbol>

<symbol id="card" viewBox="0 0 40 40">
    <path d="M23.334 6.66675H16.6673C10.3819 6.66675 7.23923 6.66675 5.28661 8.61937C3.8807 10.0253 3.48706 12.0481 3.37685 15.4167H36.6245C36.5142 12.0481 36.1206 10.0253 34.7147 8.61937C32.7621 6.66675 29.6194 6.66675 23.334 6.66675Z" fill="inherit"/>
    <path d="M16.6673 33.3334H23.334C29.6194 33.3334 32.7621 33.3334 34.7147 31.3808C36.6673 29.4282 36.6673 26.2855 36.6673 20.0001C36.6673 19.2635 36.6673 18.5701 36.6642 17.9167H3.33713C3.33398 18.5701 3.33398 19.2635 3.33398 20.0001C3.33398 26.2855 3.33398 29.4282 5.28661 31.3808C7.23923 33.3334 10.3819 33.3334 16.6673 33.3334Z" fill="inherit"/>
    <path fill-rule="evenodd" clip-rule="evenodd" d="M8.75065 26.6667C8.75065 25.9764 9.3103 25.4167 10.0007 25.4167H16.6673C17.3577 25.4167 17.9173 25.9764 17.9173 26.6667C17.9173 27.3571 17.3577 27.9167 16.6673 27.9167H10.0007C9.3103 27.9167 8.75065 27.3571 8.75065 26.6667Z" fill="inherit"/>
    <path fill-rule="evenodd" clip-rule="evenodd" d="M19.584 26.6667C19.584 25.9764 20.1436 25.4167 20.834 25.4167H23.334C24.0243 25.4167 24.584 25.9764 24.584 26.6667C24.584 27.3571 24.0243 27.9167 23.334 27.9167H20.834C20.1436 27.9167 19.584 27.3571 19.584 26.6667Z" fill="inherit"/>
</symbol>

<symbol id="statement" viewBox="0 0 40 40">
    <path fill-rule="evenodd" clip-rule="evenodd" d="M33.125 34.3195C32.0557 33.4121 30.4443 33.4121 29.375 34.3195C28.3057 35.2268 26.6943 35.2268 25.625 34.3195C24.5557 33.4121 22.9443 33.4121 21.875 34.3195C20.8057 35.2268 19.1943 35.2268 18.125 34.3195C17.0557 33.4121 15.4443 33.4121 14.375 34.3195C13.3057 35.2268 11.6943 35.2268 10.625 34.3195C9.55569 33.4121 7.94431 33.4121 6.875 34.3195C6.14848 34.936 5 34.4436 5 33.5157V6.48432C5 5.55638 6.14848 5.06404 6.875 5.68053C7.94431 6.58789 9.55569 6.58789 10.625 5.68053C11.6943 4.77316 13.3057 4.77316 14.375 5.68053C15.4443 6.58789 17.0557 6.58789 18.125 5.68053C19.1943 4.77316 20.8057 4.77316 21.875 5.68053C22.9443 6.58789 24.5557 6.58789 25.625 5.68053C26.6943 4.77316 28.3057 4.77316 29.375 5.68053C30.4443 6.58789 32.0557 6.58789 33.125 5.68053C33.8515 5.06404 35 5.55638 35 6.48432V33.5157C35 34.4436 33.8515 34.936 33.125 34.3195ZM11.25 20C11.25 19.3096 11.8096 18.75 12.5 18.75H27.5C28.1904 18.75 28.75 19.3096 28.75 20C28.75 20.6904 28.1904 21.25 27.5 21.25H12.5C11.8096 21.25 11.25 20.6904 11.25 20ZM12.5 12.9167C11.8096 12.9167 11.25 13.4763 11.25 14.1667C11.25 14.857 11.8096 15.4167 12.5 15.4167H27.5C28.1904 15.4167 28.75 14.857 28.75 14.1667C28.75 13.4763 28.1904 12.9167 27.5 12.9167H12.5ZM11.25 25.8333C11.25 25.143 11.8096 24.5833 12.5 24.5833H27.5C28.1904 24.5833 28.75 25.143 28.75 25.8333C28.75 26.5237 28.1904 27.0833 27.5 27.0833H12.5C11.8096 27.0833 11.25 26.5237 11.25 25.8333Z" fill="inherit"/>
</symbol>

<symbol id="arrowRight" viewBox="0 0 12 12">
    <path d="M5 9L8 6L5 3" stroke="inherit" stroke-linecap="round" stroke-linejoin="round"/>
</symbol>

<symbol id="checkbox" viewBox="0 0 32 32">
    <rect width="32" height="32" rx="4" fill="inherit"/>
    <path d="M8.5 15L14.5 21L26 9.5" stroke="inherit" stroke-width="3" stroke-linecap="round" stroke-linejoin="round"/>
</symbol>


</svg>