<svg width="16" height="17" viewBox="0 0 16 17" fill="none" xmlns="http://www.w3.org/2000/svg">
<path fill-rule="evenodd" clip-rule="evenodd" d="M4.15803 3.81286C4.42 3.72553 4.56158 3.44237 4.47426 3.1804C4.38693 2.91843 4.10377 2.77685 3.8418 2.86417L3.47194 2.98746C3.09134 3.11431 2.76873 3.22184 2.51263 3.3389C2.2401 3.46347 2.00155 3.61631 1.81165 3.85607C1.62175 4.09584 1.52761 4.36306 1.46877 4.65687C1.41348 4.93297 1.38271 5.27164 1.3464 5.67117L0.881558 10.7844C0.850108 10.9626 0.833561 11.146 0.833252 11.3332C0.836879 13.079 2.25325 14.5052 3.99991 14.5052C5.57541 14.5052 6.88219 13.3546 7.12583 11.8479L7.27185 11.7958C7.74269 11.6278 8.25714 11.6278 8.72798 11.7958L8.874 11.8479C9.11765 13.3546 10.4244 14.5052 11.9999 14.5052C13.7466 14.5052 15.1629 13.0789 15.1666 11.3331C15.1663 11.146 15.1497 10.9626 15.1183 10.7844L14.6534 5.67117C14.6171 5.27164 14.5863 4.93297 14.5311 4.65687C14.4722 4.36306 14.3781 4.09584 14.1882 3.85607C13.9983 3.61631 13.7597 3.46347 13.4872 3.3389C13.2311 3.22184 12.9085 3.11431 12.5279 2.98746L12.158 2.86417C11.8961 2.77685 11.6129 2.91843 11.5256 3.1804C11.4382 3.44237 11.5798 3.72553 11.8418 3.81286L12.1873 3.92801C12.5988 4.0652 12.87 4.15628 13.0715 4.24839C13.262 4.33548 13.3475 4.40526 13.4043 4.47694C13.461 4.54862 13.5094 4.64781 13.5505 4.85323C13.594 5.07048 13.6206 5.35528 13.6599 5.78733L13.9367 8.83303C13.4013 8.41853 12.7294 8.17184 11.9999 8.17184C10.4365 8.17184 9.13771 9.30482 8.8798 10.7945C8.30504 10.6282 7.69479 10.6282 7.12003 10.7945C6.86211 9.30481 5.56332 8.17184 3.99991 8.17184C3.2704 8.17184 2.5985 8.41853 2.06308 8.83303L2.09531 8.47852L2.33996 5.78733C2.37924 5.35528 2.4058 5.07048 2.44931 4.85323C2.49044 4.64781 2.53879 4.54862 2.59556 4.47694C2.65234 4.40526 2.73781 4.33548 2.92835 4.24839C3.12986 4.15628 3.40101 4.0652 3.81257 3.92801L4.15803 3.81286Z" fill="#F14C8B"/>
</svg>
