<svg width="16" height="17" viewBox="0 0 16 17" fill="none" xmlns="http://www.w3.org/2000/svg">
<path fill-rule="evenodd" clip-rule="evenodd" d="M4.861 3.86207V3.8214C4.861 3.59572 4.8687 3.30012 4.971 3.00728C5.31013 2.03647 6.23902 1.33838 7.33335 1.33838H8.66668C9.76102 1.33838 10.6899 2.03647 11.029 3.00728C11.1313 3.30012 11.139 3.59572 11.139 3.8214V3.86208C12.808 4.35374 13.9754 5.86977 13.9996 7.61589C14 7.64329 14 7.67409 14 7.73569V9.28444C13.9321 9.28442 13.8631 9.29821 13.7971 9.32737C10.1065 10.9566 5.89377 10.9566 2.20319 9.32737C2.13707 9.29818 2.06798 9.28439 2 9.28444V7.73569C2 7.67409 2 7.64329 2.00038 7.61589C2.02462 5.86976 3.192 4.35372 4.861 3.86207ZM5.91574 3.33288C6.11958 2.74937 6.678 2.33164 7.33335 2.33164H8.66668C9.32204 2.33164 9.88045 2.74937 10.0843 3.33288C10.1146 3.41963 10.1294 3.51975 10.1354 3.64627C8.72211 3.40617 7.27793 3.40616 5.8646 3.64626C5.87068 3.51974 5.88544 3.41963 5.91574 3.33288ZM6.16667 9.1189C6.16667 8.84462 6.39052 8.62227 6.66667 8.62227H9.33333C9.60948 8.62227 9.83333 8.84462 9.83333 9.1189C9.83333 9.39318 9.60948 9.61553 9.33333 9.61553H6.66667C6.39052 9.61553 6.16667 9.39318 6.16667 9.1189Z" fill="#F14C8B"/>
<path d="M14 10.323C13.4 10.5776 12.7876 10.7923 12.1668 10.9672V11.7677C12.1668 12.042 11.9429 12.2643 11.6668 12.2643C11.3906 12.2643 11.1668 12.042 11.1668 11.7677V11.213C8.11503 11.8553 4.91218 11.5586 2 10.3229V11.3538C2 12.7562 2.98067 13.9705 4.35902 14.2747C6.75709 14.804 9.24291 14.804 11.641 14.2747C13.0193 13.9705 14 12.7562 14 11.3538V10.323Z" fill="#F14C8B"/>
</svg>
