<svg width="16" height="17" viewBox="0 0 16 17" fill="none" xmlns="http://www.w3.org/2000/svg">
<path d="M2.33333 3.75488V4.6325C2.33333 5.54215 3.07075 6.27956 3.98039 6.27956C4.28361 6.27956 4.52941 6.52537 4.52941 6.82858V7.33822L7 7.33822V4.92155C7 3.31072 5.69416 2.00488 4.08333 2.00488C3.11683 2.00488 2.33333 2.78838 2.33333 3.75488Z" fill="#F14C8B"/>
<path d="M13.6666 3.75488V4.6325C13.6666 5.54215 12.9292 6.27956 12.0195 6.27956C11.7163 6.27956 11.4705 6.52537 11.4705 6.82858V7.33822L8.99994 7.33822V4.92155C8.99994 3.31072 10.3058 2.00488 11.9166 2.00488C12.8831 2.00488 13.6666 2.78838 13.6666 3.75488Z" fill="#F14C8B"/>
<path d="M2.13776 8.26571C2 8.44525 2 8.70587 2 9.22711V9.33822C2 11.838 2 13.0879 2.63661 13.9642C2.84221 14.2472 3.09107 14.496 3.37405 14.7016C4.25027 15.3382 5.50018 15.3382 8 15.3382C10.4998 15.3382 11.7497 15.3382 12.626 14.7016C12.9089 14.496 13.1578 14.2472 13.3634 13.9642C14 13.0879 14 11.838 14 9.33822V9.22711C14 8.70587 14 8.44525 13.8622 8.26571C13.8268 8.21949 13.7854 8.17811 13.7392 8.14265C13.5596 8.00488 13.299 8.00488 12.7778 8.00488H11.1667C11.1667 9.01741 10.3459 9.83822 9.33333 9.83822H6.66667C5.65414 9.83822 4.83333 9.01741 4.83333 8.00488H3.22222C2.70098 8.00488 2.44036 8.00488 2.26083 8.14265C2.2146 8.17811 2.17323 8.21949 2.13776 8.26571Z" fill="#F14C8B"/>
<path d="M5.83333 8.00488C5.83333 8.46512 6.20643 8.83822 6.66667 8.83822H9.33333C9.79357 8.83822 10.1667 8.46512 10.1667 8.00488H5.83333Z" fill="#F14C8B"/>
</svg>
