<svg width="16" height="17" viewBox="0 0 16 17" fill="none" xmlns="http://www.w3.org/2000/svg">
<path d="M1.33325 5.00488C1.33325 3.34803 2.6764 2.00488 4.33325 2.00488C5.99011 2.00488 7.33325 3.34803 7.33325 5.00488V7.00488C7.33325 7.23738 7.33325 7.35362 7.3077 7.449C7.23835 7.70782 7.03619 7.90998 6.77737 7.97933C6.68199 8.00488 6.56574 8.00488 6.33325 8.00488H4.33325C2.6764 8.00488 1.33325 6.66174 1.33325 5.00488Z" fill="#F14C8B"/>
<path d="M8.66659 10.3382C8.66659 10.1057 8.66659 9.98948 8.69214 9.8941C8.76149 9.63528 8.96365 9.43312 9.22247 9.36377C9.31785 9.33822 9.43409 9.33822 9.66659 9.33822H11.6666C13.3234 9.33822 14.6666 10.6814 14.6666 12.3382C14.6666 13.9951 13.3234 15.3382 11.6666 15.3382C10.0097 15.3382 8.66659 13.9951 8.66659 12.3382V10.3382Z" fill="#F14C8B"/>
<path d="M1.33325 12.3382C1.33325 10.6814 2.6764 9.33822 4.33325 9.33822H6.13325C6.55329 9.33822 6.76331 9.33822 6.92375 9.41996C7.06487 9.49187 7.1796 9.6066 7.25151 9.74772C7.33325 9.90816 7.33325 10.1182 7.33325 10.5382V12.3382C7.33325 13.9951 5.99011 15.3382 4.33325 15.3382C2.6764 15.3382 1.33325 13.9951 1.33325 12.3382Z" fill="#F14C8B"/>
<path d="M8.66659 5.00488C8.66659 3.34803 10.0097 2.00488 11.6666 2.00488C13.3234 2.00488 14.6666 3.34803 14.6666 5.00488C14.6666 6.66174 13.3234 8.00488 11.6666 8.00488H9.52373C9.42422 8.00488 9.37447 8.00488 9.33261 8.00017C8.9849 7.96099 8.71048 7.68657 8.6713 7.33886C8.66659 7.297 8.66659 7.24725 8.66659 7.14774V5.00488Z" fill="#F14C8B"/>
</svg>
