<svg width="16" height="17" viewBox="0 0 16 17" fill="none" xmlns="http://www.w3.org/2000/svg">
<path fill-rule="evenodd" clip-rule="evenodd" d="M1.33325 8.67155C1.33325 8.08381 1.33325 7.55103 1.33964 7.06683C1.37722 6.93691 1.42215 6.82309 1.4754 6.71858C1.74704 6.18545 2.18049 5.75201 2.71361 5.48036C2.9879 5.34061 3.32639 5.25819 3.85131 5.2153C3.951 5.20716 4.05583 5.20053 4.16659 5.19513V7.89221C4.16658 8.20393 4.16658 8.45961 4.17818 8.66081C4.18961 8.85926 4.21422 9.06483 4.29573 9.24834C4.59001 9.91088 5.31601 10.2681 6.02049 10.0971C6.21562 10.0497 6.39351 9.9438 6.55773 9.83179C6.72421 9.71823 6.92679 9.56224 7.17377 9.37207L7.18614 9.36254C7.49902 9.12163 7.58709 9.05846 7.66786 9.02337C7.87967 8.93134 8.12017 8.93134 8.33198 9.02337C8.41275 9.05846 8.50081 9.12162 8.8137 9.36254L8.82602 9.37203C9.07302 9.56223 9.27562 9.71823 9.44211 9.83179C9.60633 9.9438 9.78421 10.0497 9.97934 10.0971C10.6838 10.2681 11.4098 9.91088 11.7041 9.24834C11.7856 9.06483 11.8102 8.85926 11.8217 8.66081C11.8333 8.45961 11.8333 8.20392 11.8333 7.89218V5.19513C11.944 5.20053 12.0488 5.20716 12.1485 5.2153C12.6734 5.25819 13.0119 5.34061 13.2862 5.48036C13.8194 5.75201 14.2528 6.18545 14.5244 6.71858C14.5777 6.82309 14.6226 6.93692 14.6602 7.06683C14.6666 7.55103 14.6666 8.08381 14.6666 8.67155C14.6666 11.8142 14.6666 13.3856 13.6903 14.3619C12.714 15.3382 11.1426 15.3382 7.99992 15.3382C4.85722 15.3382 3.28587 15.3382 2.30956 14.3619C1.33325 13.3856 1.33325 11.8142 1.33325 8.67155ZM14.5621 5.15365C14.4465 4.171 14.2031 3.49401 13.6903 2.98119C12.714 2.00488 11.1426 2.00488 7.99992 2.00488C4.85722 2.00488 3.28587 2.00488 2.30956 2.98119C1.79674 3.49401 1.55329 4.171 1.43771 5.15365C1.68448 4.93189 1.96045 4.74179 2.25962 4.58936C2.69838 4.3658 3.18312 4.26656 3.76988 4.21862C4.34611 4.17154 5.06307 4.17155 5.97755 4.17155H10.0223C10.9368 4.17155 11.6537 4.17154 12.23 4.21862C12.8167 4.26656 13.3015 4.3658 13.7402 4.58936C14.0394 4.74179 14.3154 4.93189 14.5621 5.15365Z" fill="#F14C8B"/>
<path d="M5.16659 7.87661V5.17311C5.41937 5.17159 5.6958 5.17155 5.99992 5.17155H9.99992C10.304 5.17155 10.5805 5.17159 10.8333 5.17311V7.87661C10.8333 8.20777 10.8331 8.43437 10.8233 8.60327C10.8132 8.77825 10.7948 8.83209 10.7902 8.84241C10.6921 9.06326 10.4501 9.18235 10.2153 9.12533C10.2043 9.12267 10.1504 9.10443 10.0056 9.00567C9.86584 8.91034 9.68617 8.77225 9.42379 8.57021L9.37912 8.53579C9.13233 8.34552 8.93998 8.19722 8.73046 8.10619C8.26447 7.90374 7.73537 7.90374 7.26938 8.10619C7.05986 8.19722 6.86751 8.34552 6.62072 8.53579L6.57605 8.57021C6.31366 8.77225 6.134 8.91034 5.99424 9.00567C5.84944 9.10443 5.79553 9.12267 5.78455 9.12533C5.54973 9.18235 5.30773 9.06326 5.20963 8.84241C5.20505 8.83209 5.1866 8.77825 5.17652 8.60327C5.16678 8.43437 5.16659 8.20777 5.16659 7.87661Z" fill="#F14C8B"/>
</svg>
