<svg width="16" height="17" viewBox="0 0 16 17" fill="none" xmlns="http://www.w3.org/2000/svg">
<path d="M1.33325 9.00496C1.33325 8.82087 1.48249 8.67163 1.66659 8.67163H4.99992C5.18401 8.67163 5.33325 8.82087 5.33325 9.00496V12.6716C5.33325 13.7762 4.43782 14.6716 3.33325 14.6716C2.22868 14.6716 1.33325 13.7762 1.33325 12.6716V9.00496Z" fill="#F14C8B"/>
<path d="M2 7.67179H4.66667V4.67168C4.66667 4.17609 4.14512 3.85376 3.70186 4.07539L2.36852 4.74206C2.14267 4.85499 2 5.08583 2 5.33834V7.67179Z" fill="#F14C8B"/>
<path d="M7.33325 7.67155C7.33325 5.64651 8.97487 4.00488 10.9999 4.00488C13.025 4.00488 14.6666 5.64651 14.6666 7.67155C14.6666 9.69659 13.025 11.3382 10.9999 11.3382C8.97487 11.3382 7.33325 9.69659 7.33325 7.67155Z" fill="#F14C8B"/>
<path d="M10.5 12.4784C10.6643 12.4959 10.8311 12.5049 11 12.5049C11.1689 12.5049 11.3357 12.4959 11.5 12.4784V13.6715H13C13.2761 13.6715 13.5 13.8954 13.5 14.1715C13.5 14.4477 13.2761 14.6715 13 14.6715H9C8.72386 14.6715 8.5 14.4477 8.5 14.1715C8.5 13.8954 8.72386 13.6715 9 13.6715H10.5V12.4784Z" fill="#F14C8B"/>
</svg>
