<svg width="16" height="17" viewBox="0 0 16 17" fill="none" xmlns="http://www.w3.org/2000/svg">
<path d="M14.6665 6.11311L14.6665 6.16146C14.6665 6.73529 14.6665 7.0222 14.5284 7.25695C14.3903 7.49169 14.1395 7.63103 13.6378 7.90971L13.109 8.20354C13.4734 6.97144 13.595 5.64764 13.64 4.51553C13.6419 4.46699 13.6441 4.41785 13.6462 4.36819L13.6478 4.33341C14.082 4.48419 14.3257 4.5966 14.4778 4.8076C14.6666 5.0695 14.6666 5.41737 14.6665 6.11311Z" fill="#F14C8B"/>
<path d="M1.33325 6.11311L1.33325 6.16146C1.33327 6.73529 1.33328 7.0222 1.4714 7.25695C1.60953 7.49169 1.86034 7.63103 2.36195 7.90971L2.89112 8.2037C2.52663 6.97156 2.40503 5.64769 2.36009 4.51553C2.35816 4.46699 2.35599 4.41785 2.35379 4.36819L2.35225 4.33333C1.91792 4.48415 1.67409 4.59656 1.52198 4.8076C1.33322 5.0695 1.33323 5.41737 1.33325 6.11311Z" fill="#F14C8B"/>
<path fill-rule="evenodd" clip-rule="evenodd" d="M8.00002 2.00488C9.18905 2.00488 10.1686 2.10961 10.918 2.23604C11.6772 2.36413 12.0567 2.42817 12.3739 2.81877C12.691 3.20937 12.6743 3.63153 12.6407 4.47586C12.5257 7.37452 11.9001 10.9951 8.49992 11.3153V13.6715H9.45338C9.77117 13.6715 10.0448 13.8959 10.1071 14.2075L10.2333 14.8382H11.9999C12.2761 14.8382 12.4999 15.0621 12.4999 15.3382C12.4999 15.6144 12.2761 15.8382 11.9999 15.8382H3.99992C3.72378 15.8382 3.49992 15.6144 3.49992 15.3382C3.49992 15.0621 3.72378 14.8382 3.99992 14.8382H5.76659L5.89273 14.2075C5.95506 13.8959 6.22867 13.6715 6.54645 13.6715H7.49992V11.3153C4.09989 10.9949 3.47438 7.37446 3.3593 4.47586C3.32578 3.63153 3.30902 3.20937 3.62616 2.81877C3.94331 2.42817 4.32288 2.36413 5.08204 2.23604C5.83141 2.10961 6.81099 2.00488 8.00002 2.00488ZM8.63483 4.80413L8.56929 4.68656C8.31596 4.23211 8.18929 4.00488 7.99992 4.00488C7.81055 4.00488 7.68388 4.23211 7.43055 4.68656L7.36501 4.80413C7.29302 4.93327 7.25703 4.99784 7.20091 5.04044C7.14479 5.08305 7.07489 5.09886 6.9351 5.13049L6.80783 5.15929C6.31589 5.27059 6.06992 5.32625 6.0114 5.51443C5.95288 5.70261 6.12057 5.8987 6.45594 6.29087L6.5427 6.39233C6.638 6.50377 6.68565 6.55949 6.70709 6.62843C6.72853 6.69736 6.72132 6.77171 6.70692 6.92039L6.6938 7.05576C6.6431 7.579 6.61774 7.84062 6.77095 7.95693C6.92415 8.07323 7.15445 7.96719 7.61505 7.75512L7.73422 7.70025C7.8651 7.63999 7.93055 7.60985 7.99992 7.60985C8.06929 7.60985 8.13473 7.63999 8.26562 7.70025L8.38478 7.75512C8.84538 7.96719 9.07568 8.07323 9.22889 7.95693C9.38209 7.84062 9.35674 7.579 9.30604 7.05576L9.29292 6.92039C9.27851 6.77171 9.27131 6.69736 9.29275 6.62843C9.31418 6.55949 9.36183 6.50377 9.45714 6.39233L9.5439 6.29087C9.87927 5.8987 10.047 5.70261 9.98843 5.51443C9.92992 5.32625 9.68395 5.27059 9.19201 5.15929L9.06474 5.13049C8.92495 5.09886 8.85505 5.08305 8.79893 5.04044C8.74281 4.99784 8.70681 4.93327 8.63483 4.80413Z" fill="#F14C8B"/>
</svg>
