<svg width="16" height="17" viewBox="0 0 16 17" fill="none" xmlns="http://www.w3.org/2000/svg">
<path d="M3.85111 7.53523V12.8482C3.85111 13.7303 3.85111 14.1713 4.15037 14.546C4.44962 14.9206 4.80728 14.9864 5.52261 15.118C6.18388 15.2396 7.02165 15.3382 8 15.3382C8.97836 15.3382 9.81612 15.2396 10.4774 15.118C11.1927 14.9864 11.5504 14.9206 11.8496 14.546C12.1489 14.1713 12.1489 13.7303 12.1489 12.8482V7.53523C12.1489 7.07936 12.1489 6.85143 12.2365 6.65107C12.3241 6.45072 12.4886 6.30238 12.8176 6.0057L12.9411 5.89432C13.6453 5.25935 13.9973 4.94187 14 4.4823C14.0026 4.02273 13.6904 3.73416 13.0658 3.157C12.9713 3.06963 12.8776 2.98791 12.7872 2.91543C12.4729 2.66353 12.0287 2.38783 11.6888 2.18865C11.3707 2.00227 10.9969 1.95933 10.6437 2.05224L10.317 2.13817C10.0582 2.20622 9.8329 2.37328 9.68496 2.60674C8.88339 3.87165 7.11661 3.87165 6.31504 2.60674C6.1671 2.37328 5.94176 2.20622 5.68303 2.13817L5.3563 2.05224C5.00305 1.95933 4.62934 2.00227 4.31122 2.18865C3.97126 2.38783 3.52708 2.66353 3.21282 2.91543C3.12239 2.98791 3.02873 3.06963 2.93419 3.157C2.30964 3.73416 1.99737 4.02273 2.00002 4.4823C2.00267 4.94187 2.35475 5.25935 3.0589 5.89432L3.18242 6.0057C3.51143 6.30238 3.67593 6.45072 3.76352 6.65107C3.85111 6.85143 3.85111 7.07936 3.85111 7.53523Z" fill="#F14C8B"/>
</svg>
