<svg width="16" height="17" viewBox="0 0 16 17" fill="none" xmlns="http://www.w3.org/2000/svg">
<path fill-rule="evenodd" clip-rule="evenodd" d="M6.66659 3.33838H9.33325C11.8474 3.33838 13.1045 3.33838 13.8855 4.11943C14.6666 4.90048 14.6666 6.15755 14.6666 8.67171C14.6666 11.1859 14.6666 12.4429 13.8855 13.224C13.1045 14.005 11.8474 14.005 9.33325 14.005H6.66658C4.15243 14.005 2.89535 14.005 2.1143 13.224C1.33325 12.4429 1.33325 11.1859 1.33325 8.67171C1.33325 6.15755 1.33325 4.90048 2.1143 4.11943C2.89535 3.33838 4.15243 3.33838 6.66659 3.33838ZM8.83325 6.67171C8.83325 6.39557 9.05711 6.17171 9.33325 6.17171H12.6666C12.9427 6.17171 13.1666 6.39557 13.1666 6.67171C13.1666 6.94785 12.9427 7.17171 12.6666 7.17171H9.33325C9.05711 7.17171 8.83325 6.94785 8.83325 6.67171ZM9.49992 8.67171C9.49992 8.39557 9.72378 8.17171 9.99992 8.17171H12.6666C12.9427 8.17171 13.1666 8.39557 13.1666 8.67171C13.1666 8.94785 12.9427 9.17171 12.6666 9.17171H9.99992C9.72378 9.17171 9.49992 8.94785 9.49992 8.67171ZM10.1666 10.6717C10.1666 10.3956 10.3904 10.1717 10.6666 10.1717H12.6666C12.9427 10.1717 13.1666 10.3956 13.1666 10.6717C13.1666 10.9479 12.9427 11.1717 12.6666 11.1717H10.6666C10.3904 11.1717 10.1666 10.9479 10.1666 10.6717ZM7.33325 6.67171C7.33325 7.40809 6.7363 8.00505 5.99992 8.00505C5.26354 8.00505 4.66659 7.40809 4.66659 6.67171C4.66659 5.93533 5.26354 5.33838 5.99992 5.33838C6.7363 5.33838 7.33325 5.93533 7.33325 6.67171ZM5.99992 12.005C8.66659 12.005 8.66659 11.4081 8.66659 10.6717C8.66659 9.93533 7.47268 9.33838 5.99992 9.33838C4.52716 9.33838 3.33325 9.93533 3.33325 10.6717C3.33325 11.4081 3.33325 12.005 5.99992 12.005Z" fill="#F14C8B"/>
</svg>
