<svg width="16" height="17" viewBox="0 0 16 17" fill="none" xmlns="http://www.w3.org/2000/svg">
<path d="M13.0543 13.0188C14.0592 11.8516 14.6666 10.3325 14.6666 8.67155C14.6666 7.01057 14.0592 5.49147 13.0543 4.32425L10.2058 7.17274C10.4966 7.59988 10.6666 8.11586 10.6666 8.67155C10.6666 9.22723 10.4966 9.74322 10.2058 10.1704L13.0543 13.0188Z" fill="#F14C8B"/>
<path d="M12.3472 13.726C11.18 14.7308 9.6609 15.3382 7.99992 15.3382C6.33894 15.3382 4.81983 14.7308 3.65262 13.726L6.50111 10.8775C6.92825 11.1682 7.44423 11.3382 7.99992 11.3382C8.5556 11.3382 9.07159 11.1682 9.49873 10.8775L12.3472 13.726Z" fill="#F14C8B"/>
<path d="M2.94552 13.0188L5.794 10.1704C5.50322 9.74322 5.33325 9.22723 5.33325 8.67155C5.33325 8.11586 5.50322 7.59988 5.794 7.17274L2.94552 4.32425C1.94068 5.49147 1.33325 7.01057 1.33325 8.67155C1.33325 10.3325 1.94068 11.8516 2.94552 13.0188Z" fill="#F14C8B"/>
<path d="M7.99992 6.00488C7.44423 6.00488 6.92825 6.17485 6.50111 6.46563L3.65262 3.61715C4.81983 2.61231 6.33894 2.00488 7.99992 2.00488C9.6609 2.00488 11.18 2.61231 12.3472 3.61715L9.49873 6.46563C9.07159 6.17485 8.5556 6.00488 7.99992 6.00488Z" fill="#F14C8B"/>
</svg>
