<svg width="16" height="17" viewBox="0 0 16 17" fill="none" xmlns="http://www.w3.org/2000/svg">
<path d="M6.8107 13.5216C7.02282 13.3562 7.21523 13.1638 7.59999 12.779L12.5306 7.84843C11.8595 7.56913 11.0647 7.11035 10.313 6.35867C9.56122 5.60687 9.10242 4.81194 8.82313 4.14082L3.89247 9.07148L3.89244 9.0715C3.50769 9.45626 3.3153 9.64865 3.14985 9.86077C2.95468 10.111 2.78734 10.3818 2.65081 10.6682C2.53507 10.9111 2.44904 11.1692 2.27696 11.6854L1.36955 14.4077C1.28487 14.6617 1.35099 14.9418 1.54034 15.1311C1.72969 15.3205 2.00977 15.3866 2.26381 15.3019L4.98604 14.3945C5.50226 14.2224 5.76038 14.1364 6.00324 14.0207C6.28971 13.8841 6.56046 13.7168 6.8107 13.5216Z" fill="#F14C8B"/>
<path d="M13.8987 6.48025C14.9225 5.45645 14.9225 3.79654 13.8987 2.77273C12.8749 1.74893 11.215 1.74893 10.1912 2.77273L9.59986 3.36409C9.60795 3.38855 9.61635 3.41334 9.62506 3.43845C9.84182 4.06321 10.2508 4.88222 11.0201 5.65156C11.7895 6.42091 12.6085 6.82987 13.2332 7.04663C13.2582 7.0553 13.2829 7.06366 13.3073 7.07172L13.8987 6.48025Z" fill="#F14C8B"/>
</svg>
