<svg width="16" height="17" viewBox="0 0 16 17" fill="none" xmlns="http://www.w3.org/2000/svg">
<path fill-rule="evenodd" clip-rule="evenodd" d="M4.57654 14.3935C3.63254 13.8299 2.81505 13.0245 2.22629 12.0048C1.63799 10.9858 1.34926 9.87611 1.33276 8.77763L1.42913 8.79661C3.39516 9.18381 5.63181 8.48376 7.47025 7.35502C7.71204 7.20657 7.9491 7.04937 8.17973 6.88459C8.4552 7.22858 8.70187 7.57743 8.9006 7.92165C9.14974 8.35317 9.37512 8.86652 9.57652 9.4149C9.23165 9.5818 8.89537 9.76564 8.57133 9.96281C6.71011 11.0953 5.12223 12.7473 4.57683 14.3926L4.57654 14.3935ZM10.8398 14.7033C9.1032 15.5233 7.16094 15.5285 5.48066 14.8442L5.52604 14.7073C5.9684 13.3728 7.339 11.8832 9.09114 10.8171C9.35436 10.6569 9.62323 10.5081 9.89565 10.3721C10.0638 10.9253 10.2094 11.4865 10.3324 12.0135C10.4919 12.6972 10.6103 13.31 10.6888 13.7517C10.728 13.9724 10.7571 14.15 10.7764 14.2719C10.7861 14.3329 10.7933 14.3799 10.798 14.4114L10.8032 14.4467L10.8045 14.4553L10.8048 14.4577L10.8398 14.7033Z" fill="#F14C8B"/>
<path d="M10.8173 9.96663C12.0757 9.48738 13.3584 9.30318 14.4685 9.54673L14.605 9.57668C14.5238 10.1662 14.3643 10.743 14.1308 11.2907C13.6479 12.4235 12.8487 13.4314 11.7724 14.1684L11.7642 14.1156C11.744 13.9881 11.7138 13.8043 11.6734 13.5768C11.5926 13.1221 11.4707 12.4913 11.3062 11.7863C11.1736 11.2177 11.0112 10.5919 10.8173 9.96663Z" fill="#F14C8B"/>
<path d="M8.96844 6.26992C10.1208 5.29043 11.0265 4.12931 11.4165 2.97042L11.4235 2.94967C12.3673 3.51324 13.1846 4.31852 13.7733 5.33811C14.3618 6.35745 14.6505 7.4676 14.6668 8.56648C13.3364 8.27892 11.876 8.49912 10.4963 9.01919C10.2824 8.44343 10.0397 7.89462 9.76663 7.42165C9.5425 7.03346 9.26909 6.64625 8.96844 6.26992Z" fill="#F14C8B"/>
<path d="M5.54581 2.97433C5.37778 2.84145 5.24096 2.73659 5.14565 2.66459L5.13074 2.65335C6.3057 2.09164 7.57626 1.90425 8.79698 2.05222C9.38854 2.12392 9.9684 2.27438 10.52 2.49916L10.4688 2.65145C10.1506 3.59675 9.36866 4.61855 8.31651 5.51192C7.82959 4.98188 7.31602 4.49083 6.84814 4.07118C6.34335 3.61842 5.8816 3.23988 5.54581 2.97433Z" fill="#F14C8B"/>
<path d="M6.94703 6.50282C5.22262 7.56156 3.24678 8.13537 1.62237 7.81545L1.39397 7.77047C1.64016 5.97488 2.61303 4.2966 4.18769 3.20176L4.40632 3.36071L4.40768 3.3617L4.4139 3.36626L4.43993 3.38544C4.46315 3.40264 4.4979 3.42854 4.5429 3.46253C4.63292 3.53053 4.76385 3.63085 4.92551 3.75869C5.24908 4.01459 5.69441 4.37967 6.18045 4.81561C6.62032 5.21014 7.08558 5.65573 7.52176 6.12534C7.3356 6.25593 7.14376 6.38203 6.94703 6.50282Z" fill="#F14C8B"/>
</svg>
