<svg width="16" height="17" viewBox="0 0 16 17" fill="none" xmlns="http://www.w3.org/2000/svg">
<path fill-rule="evenodd" clip-rule="evenodd" d="M8.00005 2.50488C7.34772 2.50488 6.79143 2.92157 6.58527 3.50484C6.49325 3.7652 6.20759 3.90166 5.94723 3.80964C5.68687 3.71761 5.55041 3.43195 5.64243 3.17159C5.98539 2.20127 6.91075 1.50488 8.00005 1.50488C9.08934 1.50488 10.0147 2.20127 10.3577 3.17159C10.4497 3.43195 10.3132 3.71761 10.0529 3.80964C9.79251 3.90166 9.50685 3.7652 9.41482 3.50484C9.20867 2.92157 8.65238 2.50488 8.00005 2.50488Z" fill="#F14C8B"/>
<path d="M9.33325 9.00488H6.66659C6.48249 9.00488 6.33325 9.15412 6.33325 9.33822V10.7792C6.33325 10.9155 6.41624 11.0381 6.54279 11.0887L7.00954 11.2754C7.64531 11.5297 8.35453 11.5297 8.99029 11.2754L9.45705 11.0887C9.5836 11.0381 9.66659 10.9155 9.66659 10.7792V9.33822C9.66659 9.15412 9.51735 9.00488 9.33325 9.00488Z" fill="#F14C8B"/>
<path d="M5.34043 10.9176L2.00382 9.91667C2.02389 11.993 2.14518 13.9052 2.87853 14.5571C3.75721 15.3381 5.17142 15.3381 7.99985 15.3381C10.8283 15.3381 12.2425 15.3381 13.1212 14.5571C13.8545 13.9052 13.9758 11.993 13.9959 9.91668L10.6594 10.9176C10.6086 11.4061 10.2914 11.832 9.82844 12.0172L9.36168 12.2039C8.48751 12.5535 7.51233 12.5535 6.63815 12.2039L6.1714 12.0172C5.70845 11.832 5.39126 11.4061 5.34043 10.9176Z" fill="#F14C8B"/>
<path d="M5.07254 4.00488H10.9273C12.5607 4.00488 13.3775 4.00488 13.9289 4.45354C14.0348 4.53977 14.1317 4.63663 14.2179 4.74261C14.6666 5.29401 14.6666 6.11073 14.6666 7.74417C14.6666 8.15865 14.6666 8.36589 14.5661 8.52755C14.5465 8.55904 14.5243 8.58885 14.4998 8.61665C14.3738 8.75938 14.1753 8.81893 13.7783 8.93803L10.6666 9.87155V9.33822C10.6666 8.60184 10.0696 8.00488 9.33325 8.00488H6.66659C5.93021 8.00488 5.33325 8.60184 5.33325 9.33822V9.87155L2.22152 8.93803C1.82452 8.81893 1.62602 8.75938 1.50006 8.61665C1.47552 8.58885 1.45335 8.55904 1.43377 8.52755C1.33325 8.36589 1.33325 8.15865 1.33325 7.74417C1.33325 6.11073 1.33325 5.29401 1.78191 4.74261C1.86814 4.63663 1.965 4.53977 2.07098 4.45354C2.62238 4.00488 3.4391 4.00488 5.07254 4.00488Z" fill="#F14C8B"/>
</svg>
