<svg width="16" height="17" viewBox="0 0 16 17" fill="none" xmlns="http://www.w3.org/2000/svg">
<path d="M12.4514 10.3589C12.7802 10.031 12.986 9.83822 13.435 9.83822C13.8311 9.83822 14.1909 9.99649 14.4898 10.2031C13.7978 13.1468 11.1548 15.3382 7.99992 15.3382C4.97837 15.3382 2.42632 13.3281 1.60808 10.5721C2.15822 10.874 2.86715 11.1715 3.55444 11.1715C4.0969 11.1715 4.64429 10.9871 5.10468 10.773C5.45949 10.6081 5.78641 10.4142 6.05276 10.2397C6.51102 10.808 7.21301 11.1715 7.99992 11.1715C8.50108 11.1715 8.9678 11.0241 9.35905 10.7702C9.74163 10.9945 10.2159 11.1715 10.7616 11.1715C11.6371 11.1715 12.099 10.7106 12.4373 10.3729L12.4514 10.3589Z" fill="#F14C8B"/>
<path d="M6.49992 8.67155C6.49992 7.84312 7.17149 7.17155 7.99992 7.17155C8.82835 7.17155 9.49992 7.84312 9.49992 8.67155C9.49992 9.49998 8.82835 10.1715 7.99992 10.1715C7.17149 10.1715 6.49992 9.49998 6.49992 8.67155Z" fill="#F14C8B"/>
<path fill-rule="evenodd" clip-rule="evenodd" d="M7.99992 6.17155C6.61921 6.17155 5.49992 7.29084 5.49992 8.67155C5.49992 8.90501 5.53192 9.13099 5.59177 9.34536C5.33931 9.51549 5.02198 9.70868 4.68307 9.86626C4.28043 10.0535 3.887 10.1715 3.55444 10.1715C3.0479 10.1715 2.42509 9.90043 1.8793 9.57532C1.67935 9.45622 1.50091 9.33672 1.35668 9.23443C1.34117 9.04886 1.33325 8.86113 1.33325 8.67155C1.33325 6.67027 2.21508 4.87495 3.61136 3.65296C3.62223 3.66635 3.6339 3.67931 3.64637 3.69177L4.31303 4.35844C4.50829 4.5537 4.82488 4.5537 5.02014 4.35844C5.2154 4.16317 5.2154 3.84659 5.02014 3.65133L4.41721 3.0484C5.45196 2.38776 6.68122 2.00488 7.99992 2.00488C10.0012 2.00488 11.7965 2.88671 13.0185 4.28299C13.0051 4.29386 12.9922 4.30553 12.9797 4.318L12.313 4.98466C12.1178 5.17992 12.1178 5.49651 12.313 5.69177C12.5083 5.88703 12.8249 5.88703 13.0201 5.69177L13.6231 5.08884C14.2837 6.12359 14.6666 7.35286 14.6666 8.67155C14.6666 8.82827 14.6612 8.98372 14.6505 9.13773C14.3018 8.9625 13.8932 8.83822 13.435 8.83822C12.5595 8.83822 12.0976 9.2992 11.7593 9.63685L11.7452 9.65089C11.4165 9.9788 11.2106 10.1715 10.7616 10.1715C10.528 10.1715 10.3063 10.1169 10.1005 10.0277C10.3532 9.63707 10.4999 9.17145 10.4999 8.67155C10.4999 7.29084 9.38063 6.17155 7.99992 6.17155ZM10.9666 3.60488C11.1875 3.77057 11.2323 4.08397 11.0666 4.30488L10.0666 5.63822C9.9009 5.85913 9.5875 5.9039 9.36659 5.73822C9.14567 5.57253 9.1009 5.25913 9.26659 5.03822L10.2666 3.70488C10.4323 3.48397 10.7457 3.4392 10.9666 3.60488ZM6.9797 2.98466C6.78444 3.17992 6.78444 3.49651 6.9797 3.69177L7.64637 4.35844C7.84163 4.5537 8.15821 4.5537 8.35347 4.35844C8.54873 4.16317 8.54873 3.84659 8.35347 3.65133L7.68681 2.98466C7.49154 2.7894 7.17496 2.7894 6.9797 2.98466ZM5.60627 5.71164C5.67774 5.97838 5.95191 6.13667 6.21864 6.0652L7.12933 5.82118C7.39606 5.74971 7.55435 5.47554 7.48288 5.20881C7.41141 4.94207 7.13724 4.78378 6.87051 4.85525L5.95983 5.09927C5.69309 5.17074 5.5348 5.44491 5.60627 5.71164ZM11.1676 8.0971C11.4434 8.08414 11.6565 7.85002 11.6435 7.57418L11.5993 6.63241C11.5863 6.35657 11.3522 6.14347 11.0763 6.15644C10.8005 6.1694 10.5874 6.40352 10.6004 6.67936L10.6446 7.62113C10.6576 7.89697 10.8917 8.11007 11.1676 8.0971ZM12.6275 8.37416C12.81 8.58139 13.1259 8.60144 13.3331 8.41893L14.1155 7.77013C14.3228 7.58762 14.3428 7.27168 14.1603 7.06444C13.9778 6.85721 13.6618 6.83716 13.4546 7.01967L12.6722 7.66847C12.465 7.85098 12.4449 8.16692 12.6275 8.37416ZM3.93116 5.45398C3.67977 5.56825 3.56861 5.86468 3.68289 6.11607L4.07304 6.97436C4.18731 7.22575 4.48374 7.3369 4.73512 7.22263C4.98651 7.10836 5.09767 6.81193 4.9834 6.56054L4.59325 5.70225C4.47897 5.45086 4.18255 5.3397 3.93116 5.45398ZM4.62864 7.93484C4.85148 8.09793 4.89991 8.41079 4.73682 8.63362L4.18 9.39444C4.01691 9.61727 3.70406 9.66571 3.48122 9.50262C3.25838 9.33953 3.20995 9.02667 3.37304 8.80384L3.92986 8.04302C4.09295 7.82019 4.4058 7.77175 4.62864 7.93484ZM2.37481 6.13077C2.0991 6.14613 1.88804 6.3821 1.9034 6.65781L1.95584 7.59916C1.9712 7.87488 2.20716 8.08593 2.48288 8.07057C2.75859 8.05521 2.96965 7.81925 2.95429 7.54354L2.90185 6.60219C2.88649 6.32647 2.65053 6.11541 2.37481 6.13077Z" fill="#F14C8B"/>
</svg>
