<svg width="16" height="17" viewBox="0 0 16 17" fill="none" xmlns="http://www.w3.org/2000/svg">
<path fill-rule="evenodd" clip-rule="evenodd" d="M10.6616 2.016C10.6179 2.0815 10.5739 2.16106 10.5331 2.23481L10.3181 2.6234L8.43303 3.54987C8.38224 3.57483 8.35101 3.59018 8.32116 3.60551C7.23725 4.1621 6.47357 5.20796 6.24366 6.42747C6.23733 6.46109 6.23131 6.49619 6.22137 6.55415L6.22054 6.55895C6.20993 6.62086 6.20524 6.64814 6.20043 6.67447C6.02296 7.64492 5.56252 8.53056 4.88548 9.21174C4.86714 9.2302 4.84796 9.24907 4.80405 9.29225L4.26778 9.81954C3.93177 10.1499 3.66089 10.4163 3.45837 10.6454C3.25165 10.8793 3.08497 11.108 2.98481 11.371C2.71738 12.0732 2.80738 12.869 3.22704 13.4911C3.38445 13.7244 3.59906 13.9081 3.85318 14.0869C4.10201 14.2619 4.42568 14.4569 4.82666 14.6984L5.30201 14.9848C5.70284 15.2262 6.02656 15.4213 6.29643 15.5587C6.57114 15.6985 6.83429 15.8027 7.11341 15.8289C7.85837 15.8988 8.57932 15.5722 9.03332 14.9729C9.20242 14.7498 9.3084 14.4852 9.39848 14.1837C9.48714 13.887 9.57258 13.5099 9.67895 13.0405L9.8483 12.293C9.86217 12.2318 9.86828 12.2048 9.87448 12.1788C10.1028 11.2205 10.609 10.3632 11.3205 9.72241C11.3398 9.70505 11.3599 9.68733 11.406 9.64672L11.4097 9.64347C11.4528 9.60561 11.4791 9.58246 11.504 9.55971C12.4092 8.73498 12.8878 7.52351 12.809 6.28385C12.8068 6.24969 12.8039 6.21415 12.7992 6.1555L12.6248 3.97744L12.8615 3.54955C12.8997 3.48071 12.9412 3.4057 12.972 3.33769C13.007 3.2604 13.046 3.15508 13.0518 3.02656C13.0596 2.85494 13.0141 2.68511 12.9217 2.54033C12.8524 2.4319 12.7659 2.36019 12.697 2.31073C12.6364 2.2672 12.5629 2.22297 12.4955 2.18238L11.9519 1.85493C11.8797 1.81143 11.8019 1.7645 11.7313 1.72959C11.6518 1.69024 11.5417 1.64514 11.4059 1.63699C11.2261 1.62621 11.0476 1.674 10.8972 1.77321C10.7836 1.8481 10.7108 1.94217 10.6616 2.016ZM10.6553 3.57195L11.6364 4.16301L11.802 6.23039C11.8055 6.27302 11.8076 6.29926 11.809 6.31931L11.1056 6.55378C10.6863 6.69354 10.2248 6.61123 9.87968 6.33514C9.17827 5.77401 8.2146 5.67192 7.41119 6.07363L7.3714 6.09352C7.63254 5.39783 8.13311 4.82621 8.77795 4.49508C8.79903 4.48426 8.82196 4.47297 8.87871 4.44508L10.6553 3.57195Z" fill="#F14C8B"/>
</svg>
