<svg width="16" height="17" viewBox="0 0 16 17" fill="none" xmlns="http://www.w3.org/2000/svg">
<path d="M11.7184 3.6259L10.3851 2.92619C9.21464 2.31199 8.62943 2.00488 7.99992 2.00488C7.3704 2.00488 6.7852 2.31199 5.61478 2.92619L4.28145 3.62589C3.09895 4.24644 2.40385 4.61121 1.97305 5.0991L7.99992 8.11253L14.0268 5.0991C13.596 4.61121 12.9009 4.24644 11.7184 3.6259Z" fill="#F14C8B"/>
<path d="M14.4988 5.98111L8.49992 8.98057V15.2742C8.97853 15.155 9.5231 14.8692 10.3851 14.4169L11.7184 13.7172C13.1528 12.9644 13.8701 12.5881 14.2683 11.9117C14.6666 11.2354 14.6666 10.3938 14.6666 8.71054V8.63256C14.6666 7.37078 14.6666 6.58193 14.4988 5.98111Z" fill="#F14C8B"/>
<path d="M7.49992 15.2742V8.98057L1.50101 5.98111C1.33325 6.58193 1.33325 7.37078 1.33325 8.63256V8.71054C1.33325 10.3938 1.33325 11.2354 1.73152 11.9117C2.12978 12.5881 2.847 12.9644 4.28145 13.7172L5.61478 14.4169C6.47674 14.8692 7.02131 15.155 7.49992 15.2742Z" fill="#F14C8B"/>
</svg>
