<svg width="16" height="17" viewBox="0 0 16 17" fill="none" xmlns="http://www.w3.org/2000/svg">
<path d="M1.65071 8.67163C1.47538 8.67163 1.33325 8.5295 1.33325 8.35417C1.33325 5.39046 3.36387 2.90102 6.10971 2.20126C6.00828 2.32967 5.91417 2.46515 5.82702 2.60466C5.33647 3.39003 4.9955 4.40851 4.75606 5.38601C4.5148 6.37097 4.36805 7.35101 4.28156 8.0816C4.25539 8.30258 4.23466 8.50147 4.21845 8.67163H1.65071Z" fill="#F14C8B"/>
<path d="M14.6666 8.35417C14.6666 8.5295 14.5245 8.67163 14.3491 8.67163H11.7814C11.7652 8.50147 11.7444 8.30258 11.7183 8.0816C11.6318 7.35101 11.485 6.37097 11.2438 5.38601C11.0043 4.40851 10.6634 3.39003 10.1728 2.60466C10.0857 2.46515 9.99155 2.32967 9.89013 2.20126C12.636 2.90102 14.6666 5.39046 14.6666 8.35417Z" fill="#F14C8B"/>
<path d="M7.49992 14.005V8.67163H5.22317C5.23716 8.53069 5.25415 8.37203 5.27462 8.19917C5.35831 7.49226 5.49913 6.55563 5.72735 5.62392C5.9574 4.68475 6.26783 3.78656 6.67517 3.13443C7.08608 2.47657 7.52572 2.17163 7.99992 2.17163C8.47412 2.17163 8.91376 2.47657 9.32467 3.13443C9.73201 3.78656 10.0424 4.68475 10.2725 5.62392C10.5007 6.55563 10.6415 7.49226 10.7252 8.19917C10.7457 8.37203 10.7627 8.53069 10.7767 8.67163H8.49992V14.005C8.49992 15.0175 7.67911 15.8383 6.66659 15.8383C5.65406 15.8383 4.83325 15.0175 4.83325 14.005V13.3383C4.83325 13.0622 5.05711 12.8383 5.33325 12.8383C5.60939 12.8383 5.83325 13.0622 5.83325 13.3383V14.005C5.83325 14.4652 6.20635 14.8383 6.66659 14.8383C7.12682 14.8383 7.49992 14.4652 7.49992 14.005Z" fill="#F14C8B"/>
</svg>
